<?xml version="1.0"?>

<svg version="1.1" id="Capa_1" xmlns="http://www.w3.org/2000/svg" xmlns:xlink="http://www.w3.org/1999/xlink" x="0px" y="0px" viewBox="0 0 1304 368" enable-background="new 0 0 1304 368" xml:space="preserve">
<g>
&#x9;<g>
&#x9;&#x9;<g>
&#x9;&#x9;&#x9;<path d="M532.875,224.79c0,1.664-0.251,3.249-0.727,4.75c-0.479,1.503-1.166,2.866-2.069,4.091c-0.888,1.225-1.96,2.3-3.2,3.223&#xA;&#x9;&#x9;&#x9;&#x9;c-1.239,0.927-2.613,1.643-4.12,2.151l14.237,22.049h-5.024l-13.685-21.217c-0.195,0.045-0.96,0.068-2.31,0.068&#xA;&#x9;&#x9;&#x9;&#x9;c-1.352,0-3.312,0-5.879,0v21.356h-4.204v-47.08c4.405-1.986,8.743-2.98,13.014-2.98c3.896,0,7.196,1.317,9.899,3.951&#xA;&#x9;&#x9;&#x9;&#x9;C531.523,217.742,532.875,220.953,532.875,224.79z M517.526,236.507c3.065,0,5.679-1.15,7.845-3.455&#xA;&#x9;&#x9;&#x9;&#x9;c2.194-2.351,3.299-5.092,3.299-8.225c0-2.672-0.955-5.047-2.892-7.121c-1.925-2.073-4.216-3.109-6.872-3.109&#xA;&#x9;&#x9;&#x9;&#x9;c-2.569,0-5.51,0.599-8.81,1.796v20.113H517.526z"></path>
&#x9;&#x9;&#x9;<path d="M556.781,224.582c3.684,0,6.815,1.317,9.391,3.952c2.568,2.589,3.853,5.732,3.853,9.43c0,2.08-0.723,3.744-2.167,4.993&#xA;&#x9;&#x9;&#x9;&#x9;c-1.461,1.246-3.275,1.871-5.491,1.871h-18.002c0.179,4.001,1.333,7.292,3.443,9.867c2.262,2.76,5.277,4.14,9.044,4.14&#xA;&#x9;&#x9;&#x9;&#x9;c3.677,0,7.361-0.669,11.045-2.011v3.745c-3.595,1.109-7.279,1.663-11.045,1.663c-5.472,0-9.665-1.802-12.555-5.408&#xA;&#x9;&#x9;&#x9;&#x9;c-2.763-3.375-4.137-7.836-4.137-13.382c0-5.409,1.307-9.799,3.92-13.174C547.03,226.477,551.27,224.582,556.781,224.582z&#xA;&#x9;&#x9;&#x9;&#x9; M565.836,237.963c0-2.496-0.907-4.784-2.704-6.864c-1.797-2.08-3.887-3.12-6.278-3.12c-3.721,0-6.716,1.318-8.979,3.953&#xA;&#x9;&#x9;&#x9;&#x9;c-2.022,2.451-3.198,5.616-3.512,9.499h18.012c0.929,0,1.73-0.335,2.419-1.006C565.484,239.756,565.836,238.934,565.836,237.963z&#xA;&#x9;&#x9;&#x9;&#x9;"></path>
&#x9;&#x9;&#x9;<path d="M593.699,281.161c-4.548,0-8.953-0.854-13.208-2.565v-3.953c4.121,2.08,8.526,3.121,13.208,3.121&#xA;&#x9;&#x9;&#x9;&#x9;c2.709,0,5.016-1.043,6.942-3.126c1.932-1.992,2.896-4.375,2.896-7.153v-6.459c-1.418,0.425-2.875,0.755-4.337,0.992&#xA;&#x9;&#x9;&#x9;&#x9;c-1.464,0.234-2.983,0.352-4.54,0.352c-5.51,0-9.982-1.872-13.415-5.616c-3.352-3.651-5.025-8.205-5.025-13.66&#xA;&#x9;&#x9;&#x9;&#x9;c0-5.547,1.463-9.96,4.405-13.243c3.084-3.467,7.35-5.2,12.828-5.2c5.194,0,9.962,0.948,14.289,2.842V267.5&#xA;&#x9;&#x9;&#x9;&#x9;c0,3.884-1.389,7.12-4.137,9.708C600.902,279.841,597.602,281.161,593.699,281.161z M593.84,228.049&#xA;&#x9;&#x9;&#x9;&#x9;c-4.271,0-7.526,1.452-9.781,4.358c-2.151,2.723-3.233,6.273-3.233,10.654c0,4.291,1.284,7.979,3.852,11.07&#xA;&#x9;&#x9;&#x9;&#x9;c2.667,3.228,6.13,4.843,10.401,4.843c2.372,0,5.202-0.578,8.458-1.729V229.64C600.282,228.579,597.049,228.049,593.84,228.049z"></path>
&#x9;&#x9;&#x9;<path d="M618.192,208.08h4.204v4.23h-4.204V208.08z M622.396,225.899v35.154h-4.204v-35.154H622.396z"></path>
&#x9;&#x9;&#x9;<path d="M650.735,229.574c-2.468-1.109-5.092-1.665-7.872-1.665c-5.304,0-7.956,2.012-7.956,6.033&#xA;&#x9;&#x9;&#x9;&#x9;c0,2.173,1.538,4.045,4.599,5.616l8.616,4.438c3.076,2.126,4.606,4.808,4.606,8.044c0,3.466-1.397,6.126-4.188,7.973&#xA;&#x9;&#x9;&#x9;&#x9;c-2.344,1.432-5.115,2.15-8.325,2.15c-3.763,0-6.951-0.485-9.564-1.457v-4.091c3.016,1.525,6.114,2.289,9.279,2.289&#xA;&#x9;&#x9;&#x9;&#x9;c2.255,0,4.181-0.555,5.779-1.664c1.792-1.249,2.696-2.844,2.696-4.784c0-2.45-1.538-4.507-4.598-6.172&#xA;&#x9;&#x9;&#x9;&#x9;c-1.411-0.785-2.823-1.524-4.234-2.218c-1.415-0.694-2.815-1.458-4.182-2.289c-1.628-0.925-2.81-2.021-3.552-3.293&#xA;&#x9;&#x9;&#x9;&#x9;c-0.758-1.271-1.122-2.645-1.122-4.126c0-3.373,1.195-5.916,3.569-7.626c2.12-1.48,4.8-2.219,8.056-2.219&#xA;&#x9;&#x9;&#x9;&#x9;c2.897,0,5.688,0.485,8.391,1.455V229.574z"></path>
&#x9;&#x9;&#x9;<path d="M671.721,262.37c-1.195,0-2.286-0.197-3.3-0.589c-1.001-0.393-1.893-0.947-2.646-1.665&#xA;&#x9;&#x9;&#x9;&#x9;c-0.753-0.716-1.352-1.56-1.792-2.531c-0.433-0.97-0.653-2.032-0.653-3.19v-25.168h-6.884v-3.398h6.884v-10.747h4.204v10.747&#xA;&#x9;&#x9;&#x9;&#x9;h8.458v3.398h-8.458v25.111c0,1.198,0.402,2.271,1.239,3.216c0.821,0.946,1.804,1.418,2.949,1.418&#xA;&#x9;&#x9;&#x9;&#x9;c1.612,0,3.359-0.485,5.236-1.457v3.537C675.349,261.93,673.602,262.37,671.721,262.37z"></path>
&#x9;&#x9;&#x9;<path d="M697.464,228.118c-3.256,0-6.465,0.533-9.631,1.595v31.409h-4.203v-33.57c4.271-1.888,9.011-2.832,14.252-2.832&#xA;&#x9;&#x9;&#x9;&#x9;c0.492,0,0.932,0,1.306,0c0.358,0,0.664,0.025,0.889,0.07v3.467c-0.643-0.045-1.183-0.079-1.625-0.104&#xA;&#x9;&#x9;&#x9;&#x9;C698.027,228.13,697.688,228.118,697.464,228.118z"></path>
&#x9;&#x9;&#x9;<path d="M737.577,243.788c0,5.594-1.396,10.009-4.198,13.243c-2.887,3.467-7.068,5.2-12.518,5.2&#xA;&#x9;&#x9;&#x9;&#x9;c-5.421,0-9.641-1.872-12.662-5.616c-2.898-3.512-4.338-8.065-4.338-13.659c0-5.456,1.418-9.869,4.271-13.244&#xA;&#x9;&#x9;&#x9;&#x9;c3.016-3.467,7.241-5.2,12.662-5.2c5.315,0,9.491,1.896,12.513,5.685C736.159,233.759,737.577,238.287,737.577,243.788z&#xA;&#x9;&#x9;&#x9;&#x9; M708.468,242.921c0,4.568,0.971,8.258,2.897,11.069c2.195,3.23,5.36,4.843,9.497,4.843c4.165,0,7.286-1.476,9.347-4.428&#xA;&#x9;&#x9;&#x9;&#x9;c1.836-2.536,2.763-6.087,2.763-10.654c0-4.52-0.949-8.209-2.83-11.069c-2.151-3.182-5.271-4.774-9.347-4.774&#xA;&#x9;&#x9;&#x9;&#x9;c-4.182,0-7.325,1.453-9.429,4.359C709.438,234.898,708.468,238.448,708.468,242.921z"></path>
&#x9;&#x9;&#x9;<path d="M781.76,258.834c5.135,0,9.943-1.225,14.439-3.674v-43.128h4.204v44.93c-5.555,3.513-11.773,5.27-18.642,5.27&#xA;&#x9;&#x9;&#x9;&#x9;c-4.689,0-8.631-1.57-11.841-4.714c-3.256-3.189-4.89-7.118-4.89-11.787v-33.698h4.203v33.698c0,3.559,1.217,6.633,3.65,9.221&#xA;&#x9;&#x9;&#x9;&#x9;C775.313,257.541,778.266,258.834,781.76,258.834z M786.083,198.165h4.203l-5.914,8.735h-3.381L786.083,198.165z"></path>
&#x9;&#x9;&#x9;<path d="M810.787,261.122v-32.31c7.452-2.728,12.579-4.092,15.394-4.092c1.93,0,3.688,0.319,5.305,0.956&#xA;&#x9;&#x9;&#x9;&#x9;c1.601,0.637,2.982,1.529,4.098,2.671c1.129,1.142,2.012,2.522,2.621,4.141c0.632,1.618,0.937,3.396,0.937,5.338v23.297h-4.204&#xA;&#x9;&#x9;&#x9;&#x9;v-23.297c0-1.387-0.224-2.669-0.686-3.849c-0.447-1.177-1.082-2.206-1.893-3.084c-0.798-0.878-1.767-1.561-2.881-2.046&#xA;&#x9;&#x9;&#x9;&#x9;c-1.128-0.485-2.378-0.728-3.751-0.728c-3.391,0-6.974,0.901-10.736,2.705v30.299H810.787z"></path>
&#x9;&#x9;&#x9;<path d="M850.079,208.08h4.204v4.23h-4.204V208.08z M854.282,225.899v35.154h-4.204v-35.154H854.282z"></path>
&#x9;&#x9;&#x9;<path d="M889.304,261.053c-3.255,0.832-6.398,1.248-9.43,1.248c-5.405,0-9.676-1.803-12.796-5.407&#xA;&#x9;&#x9;&#x9;&#x9;c-2.988-3.421-4.472-7.881-4.472-13.382c0-5.454,1.484-9.939,4.472-13.452c3.165-3.65,7.436-5.477,12.796-5.477&#xA;&#x9;&#x9;&#x9;&#x9;c3.121,0,6.264,0.439,9.43,1.317v3.605c-3.031-1.015-6.175-1.525-9.43-1.525c-4.031,0-7.242,1.544-9.631,4.635&#xA;&#x9;&#x9;&#x9;&#x9;c-2.3,2.952-3.434,6.573-3.434,10.862c0,4.243,1.134,7.842,3.434,10.792c2.389,3.09,5.6,4.635,9.631,4.635&#xA;&#x9;&#x9;&#x9;&#x9;c3.255,0,6.398-0.487,9.43-1.458V261.053z"></path>
&#x9;&#x9;&#x9;<path d="M927.701,243.788c0,5.594-1.405,10.009-4.197,13.243c-2.898,3.467-7.063,5.2-12.528,5.2&#xA;&#x9;&#x9;&#x9;&#x9;c-5.406,0-9.63-1.872-12.662-5.616c-2.881-3.512-4.337-8.065-4.337-13.659c0-5.456,1.431-9.869,4.27-13.244&#xA;&#x9;&#x9;&#x9;&#x9;c3.032-3.467,7.242-5.2,12.663-5.2c5.315,0,9.497,1.896,12.528,5.685C926.274,233.759,927.701,238.287,927.701,243.788z&#xA;&#x9;&#x9;&#x9;&#x9; M898.598,242.921c0,4.568,0.955,8.258,2.882,11.069c2.21,3.23,5.375,4.843,9.496,4.843c4.181,0,7.301-1.476,9.362-4.428&#xA;&#x9;&#x9;&#x9;&#x9;c1.836-2.536,2.747-6.087,2.747-10.654c0-4.52-0.933-8.209-2.814-11.069c-2.167-3.182-5.278-4.774-9.362-4.774&#xA;&#x9;&#x9;&#x9;&#x9;c-4.182,0-7.312,1.453-9.429,4.359C899.553,234.898,898.598,238.448,898.598,242.921z"></path>
&#x9;&#x9;&#x9;<path d="M970.045,224.651c3.391,0,6.73,0.601,10.021,1.802v-18.305h4.19v51.102c-4.49,1.941-8.82,2.913-13,2.913&#xA;&#x9;&#x9;&#x9;&#x9;c-5.458,0-9.871-1.827-13.215-5.478c-3.39-3.699-5.092-8.251-5.092-13.659c0-5.409,1.523-9.823,4.54-13.243&#xA;&#x9;&#x9;&#x9;&#x9;C960.465,226.362,964.655,224.651,970.045,224.651z M970.462,228.049c-4.213,0-7.436,1.456-9.669,4.368&#xA;&#x9;&#x9;&#x9;&#x9;c-2.159,2.728-3.238,6.264-3.238,10.609c0,4.345,1.281,8.02,3.843,11.024c2.663,3.235,6.086,4.854,10.301,4.854&#xA;&#x9;&#x9;&#x9;&#x9;c2.367,0,5.165-0.601,8.366-1.804v-27.317C977.087,228.627,973.886,228.049,970.462,228.049z"></path>
&#x9;&#x9;&#x9;<path d="M1008.794,224.582c3.684,0,6.815,1.317,9.391,3.952c2.568,2.589,3.853,5.732,3.853,9.43c0,2.08-0.723,3.744-2.169,4.993&#xA;&#x9;&#x9;&#x9;&#x9;c-1.459,1.246-3.286,1.871-5.489,1.871h-18.003c0.18,4.001,1.333,7.292,3.443,9.867c2.258,2.76,5.264,4.14,9.038,4.14&#xA;&#x9;&#x9;&#x9;&#x9;c3.684,0,7.367-0.669,11.052-2.011v3.745c-3.594,1.109-7.279,1.663-11.052,1.663c-5.465,0-9.658-1.802-12.549-5.408&#xA;&#x9;&#x9;&#x9;&#x9;c-2.761-3.375-4.135-7.836-4.135-13.382c0-5.409,1.307-9.799,3.92-13.174C999.044,226.477,1003.269,224.582,1008.794,224.582z&#xA;&#x9;&#x9;&#x9;&#x9; M1017.836,237.963c0-2.496-0.892-4.784-2.69-6.864c-1.798-2.08-3.887-3.12-6.284-3.12c-3.729,0-6.709,1.318-8.972,3.953&#xA;&#x9;&#x9;&#x9;&#x9;c-2.022,2.451-3.198,5.616-3.512,9.499h18.013c0.915,0,1.73-0.335,2.419-1.006&#xA;&#x9;&#x9;&#x9;&#x9;C1017.498,239.756,1017.836,238.934,1017.836,237.963z"></path>
&#x9;&#x9;&#x9;<path d="M1054.095,239.558v21.495h-4.188v-47.149c4.584-2.034,8.921-3.052,12.998-3.052c3.897,0,7.212,1.318,9.915,3.953&#xA;&#x9;&#x9;&#x9;&#x9;c2.702,2.635,4.054,5.872,4.054,9.708c0,4.252-1.486,7.835-4.472,10.746c-2.977,2.867-6.6,4.299-10.871,4.299H1054.095z&#xA;&#x9;&#x9;&#x9;&#x9; M1054.095,236.162h7.437c3.075,0,5.688-1.153,7.839-3.458c2.21-2.349,3.316-5.091,3.316-8.224c0-2.671-0.971-5.045-2.898-7.119&#xA;&#x9;&#x9;&#x9;&#x9;c-1.926-2.074-4.225-3.111-6.883-3.111c-2.613,0-5.539,0.576-8.81,1.729V236.162z"></path>
&#x9;&#x9;&#x9;<path d="M1098.048,224.582c3.684,0,6.799,1.317,9.375,3.952c2.568,2.589,3.852,5.732,3.852,9.43c0,2.08-0.709,3.744-2.167,4.993&#xA;&#x9;&#x9;&#x9;&#x9;c-1.445,1.246-3.275,1.871-5.491,1.871h-18.002c0.18,4.001,1.333,7.292,3.459,9.867c2.246,2.76,5.264,4.14,9.038,4.14&#xA;&#x9;&#x9;&#x9;&#x9;c3.683,0,7.363-0.669,11.036-2.011v3.745c-3.579,1.109-7.263,1.663-11.036,1.663c-5.481,0-9.671-1.802-12.564-5.408&#xA;&#x9;&#x9;&#x9;&#x9;c-2.748-3.375-4.121-7.836-4.121-13.382c0-5.409,1.306-9.799,3.919-13.174C1088.283,226.477,1092.522,224.582,1098.048,224.582z&#xA;&#x9;&#x9;&#x9;&#x9; M1107.088,237.963c0-2.496-0.907-4.784-2.689-6.864c-1.798-2.08-3.887-3.12-6.284-3.12c-3.73,0-6.725,1.318-8.972,3.953&#xA;&#x9;&#x9;&#x9;&#x9;c-2.038,2.451-3.201,5.616-3.527,9.499h18.012c0.928,0,1.73-0.335,2.419-1.006&#xA;&#x9;&#x9;&#x9;&#x9;C1106.749,239.756,1107.088,238.934,1107.088,237.963z"></path>
&#x9;&#x9;&#x9;<path d="M1133.369,228.118c-3.257,0-6.467,0.533-9.633,1.595v31.409h-4.188v-33.57c4.255-1.888,9.012-2.832,14.237-2.832&#xA;&#x9;&#x9;&#x9;&#x9;c0.508,0,0.947,0,1.307,0c0.368,0,0.664,0.025,0.902,0.07v3.467c-0.657-0.045-1.183-0.079-1.623-0.104&#xA;&#x9;&#x9;&#x9;&#x9;C1133.93,228.13,1133.605,228.118,1133.369,228.118z"></path>
&#x9;&#x9;&#x9;<path d="M1159.863,229.574c-2.469-1.109-5.093-1.665-7.875-1.665c-5.307,0-7.953,2.012-7.953,6.033&#xA;&#x9;&#x9;&#x9;&#x9;c0,2.173,1.523,4.045,4.587,5.616l8.628,4.438c3.075,2.126,4.606,4.808,4.606,8.044c0,3.466-1.397,6.126-4.188,7.973&#xA;&#x9;&#x9;&#x9;&#x9;c-2.344,1.432-5.115,2.15-8.34,2.15c-3.763,0-6.935-0.485-9.55-1.457v-4.091c3.018,1.525,6.117,2.289,9.282,2.289&#xA;&#x9;&#x9;&#x9;&#x9;c2.255,0,4.173-0.555,5.779-1.664c1.792-1.249,2.689-2.844,2.689-4.784c0-2.45-1.532-4.507-4.591-6.172&#xA;&#x9;&#x9;&#x9;&#x9;c-1.412-0.785-2.823-1.524-4.235-2.218c-1.425-0.694-2.814-1.458-4.18-2.289c-1.636-0.925-2.825-2.021-3.568-3.293&#xA;&#x9;&#x9;&#x9;&#x9;c-0.743-1.271-1.106-2.645-1.106-4.126c0-3.373,1.192-5.916,3.569-7.626c2.104-1.48,4.8-2.219,8.056-2.219&#xA;&#x9;&#x9;&#x9;&#x9;c2.881,0,5.688,0.485,8.392,1.455V229.574z"></path>
&#x9;&#x9;&#x9;<path d="M1200.663,243.788c0,5.594-1.396,10.009-4.188,13.243c-2.896,3.467-7.063,5.2-12.528,5.2&#xA;&#x9;&#x9;&#x9;&#x9;c-5.42,0-9.63-1.872-12.662-5.616c-2.897-3.512-4.338-8.065-4.338-13.659c0-5.456,1.418-9.869,4.271-13.244&#xA;&#x9;&#x9;&#x9;&#x9;c3.031-3.467,7.242-5.2,12.663-5.2c5.315,0,9.497,1.896,12.516,5.685C1199.245,233.759,1200.663,238.287,1200.663,243.788z&#xA;&#x9;&#x9;&#x9;&#x9; M1171.568,242.921c0,4.568,0.956,8.258,2.883,11.069c2.209,3.23,5.36,4.843,9.496,4.843c4.181,0,7.287-1.476,9.363-4.428&#xA;&#x9;&#x9;&#x9;&#x9;c1.825-2.536,2.747-6.087,2.747-10.654c0-4.52-0.946-8.209-2.814-11.069c-2.166-3.182-5.286-4.774-9.362-4.774&#xA;&#x9;&#x9;&#x9;&#x9;c-4.182,0-7.322,1.453-9.429,4.359C1172.524,234.898,1171.568,238.448,1171.568,242.921z"></path>
&#x9;&#x9;&#x9;<path d="M1208.854,261.122v-32.31c7.453-2.728,12.579-4.092,15.379-4.092c1.944,0,3.703,0.319,5.32,0.956&#xA;&#x9;&#x9;&#x9;&#x9;c1.603,0.637,2.982,1.529,4.098,2.671c1.13,1.142,1.998,2.522,2.628,4.141c0.612,1.618,0.931,3.396,0.931,5.338v23.297h-4.204&#xA;&#x9;&#x9;&#x9;&#x9;v-23.297c0-1.387-0.224-2.669-0.687-3.849c-0.463-1.177-1.079-2.206-1.893-3.084c-0.799-0.878-1.757-1.561-2.881-2.046&#xA;&#x9;&#x9;&#x9;&#x9;c-1.128-0.485-2.378-0.728-3.751-0.728c-3.406,0-6.974,0.901-10.736,2.705v30.299H1208.854z"></path>
&#x9;&#x9;&#x9;<path d="M1272.917,258.071c-4.182,2.821-8.989,4.23-14.455,4.23c-3.807,0-6.971-0.948-9.488-2.843&#xA;&#x9;&#x9;&#x9;&#x9;c-2.427-1.941-3.644-4.438-3.644-7.488c0-3.373,1.441-6.078,4.323-8.113c3.27-2.311,8.01-3.466,14.252-3.466h4.807v-4.896&#xA;&#x9;&#x9;&#x9;&#x9;c0-1.977-0.73-3.7-2.194-5.171c-1.464-1.515-3.3-2.275-5.511-2.275c-4.21,0-8.085,0.693-11.623,2.08v-3.744&#xA;&#x9;&#x9;&#x9;&#x9;c3.583-1.154,7.704-1.733,12.393-1.733c3.105,0,5.745,1.039,7.906,3.119c2.16,2.036,3.233,4.601,3.233,7.698V258.071z&#xA;&#x9;&#x9;&#x9;&#x9; M1268.713,243.788h-4.389c-5.003,0-8.789,0.874-11.356,2.623c-2.121,1.427-3.166,3.268-3.166,5.522&#xA;&#x9;&#x9;&#x9;&#x9;c0,1.978,0.798,3.635,2.397,4.97c1.611,1.333,3.785,2.001,6.547,2.001c3.658,0,6.995-0.851,9.966-2.554V243.788z"></path>
&#x9;&#x9;&#x9;<path d="M1300.719,229.574c-2.468-1.109-5.093-1.665-7.887-1.665c-5.294,0-7.94,2.012-7.94,6.033&#xA;&#x9;&#x9;&#x9;&#x9;c0,2.173,1.523,4.045,4.583,5.616l8.631,4.438c3.076,2.126,4.607,4.808,4.607,8.044c0,3.466-1.397,6.126-4.191,7.973&#xA;&#x9;&#x9;&#x9;&#x9;c-2.342,1.432-5.124,2.15-8.337,2.15c-3.763,0-6.948-0.485-9.563-1.457v-4.091c3.031,1.525,6.129,2.289,9.295,2.289&#xA;&#x9;&#x9;&#x9;&#x9;c2.249,0,4.166-0.555,5.779-1.664c1.792-1.249,2.681-2.844,2.681-4.784c0-2.45-1.523-4.507-4.583-6.172&#xA;&#x9;&#x9;&#x9;&#x9;c-1.411-0.785-2.824-1.524-4.25-2.218c-1.411-0.694-2.8-1.458-4.167-2.289c-1.636-0.925-2.825-2.021-3.567-3.293&#xA;&#x9;&#x9;&#x9;&#x9;c-0.743-1.271-1.12-2.645-1.12-4.126c0-3.373,1.193-5.916,3.582-7.626c2.104-1.48,4.785-2.219,8.056-2.219&#xA;&#x9;&#x9;&#x9;&#x9;c2.881,0,5.679,0.485,8.391,1.455V229.574z"></path>
&#x9;&#x9;&#x9;<path d="M532.038,309.103L511.81,363.95h-3.641l7.353-19.832l-14.99-35.015h4.606l12.311,29.815l11.02-29.815H532.038z"></path>
&#x9;&#x9;&#x9;<path d="M578.348,318.604c2.254,1.061,4.058,2.623,5.41,4.679c1.351,2.058,2.027,4.401,2.027,7.038&#xA;&#x9;&#x9;&#x9;&#x9;c0,4.205-1.486,7.813-4.473,10.816c-2.896,2.865-6.51,4.3-10.87,4.3c-4.047,0-8.392-0.97-13.081-2.914v-45.486&#xA;&#x9;&#x9;&#x9;&#x9;c4.405-1.985,8.765-2.979,13.081-2.979c3.897,0,7.196,1.316,9.899,3.949c2.718,2.637,4.069,5.872,4.069,9.708&#xA;&#x9;&#x9;&#x9;&#x9;C584.41,312.432,582.394,316.062,578.348,318.604z M571.128,317.284c2.479,0,4.607-0.947,6.398-2.841&#xA;&#x9;&#x9;&#x9;&#x9;c1.792-1.943,2.68-4.184,2.68-6.727c0-2.772-0.955-5.175-2.881-7.21c-1.927-2.035-4.227-3.051-6.884-3.051&#xA;&#x9;&#x9;&#x9;&#x9;c-2.658,0-5.623,0.576-8.877,1.734v18.095H571.128z M581.581,330.29c0-2.533-0.888-4.769-2.681-6.704&#xA;&#x9;&#x9;&#x9;&#x9;c-1.791-1.939-3.919-2.905-6.398-2.905h-10.938v19.632c3.254,1.151,6.219,1.725,8.877,1.725c3.031,0,5.644-1.173,7.839-3.523&#xA;&#x9;&#x9;&#x9;&#x9;C580.491,336.165,581.581,333.42,581.581,330.29z"></path>
&#x9;&#x9;&#x9;<path d="M620.404,341.277c-4.182,2.818-9.005,4.228-14.455,4.228c-3.808,0-6.974-0.948-9.496-2.843&#xA;&#x9;&#x9;&#x9;&#x9;c-2.435-1.941-3.651-4.438-3.651-7.489c0-3.373,1.44-6.077,4.338-8.113c3.254-2.31,8.007-3.464,14.237-3.464h4.823v-4.897&#xA;&#x9;&#x9;&#x9;&#x9;c0-1.975-0.732-3.7-2.206-5.17c-1.469-1.518-3.304-2.275-5.5-2.275c-4.227,0-8.101,0.693-11.639,2.078v-3.743&#xA;&#x9;&#x9;&#x9;&#x9;c3.583-1.154,7.716-1.733,12.393-1.733c3.121,0,5.756,1.039,7.906,3.122c2.165,2.032,3.249,4.597,3.249,7.696V341.277z&#xA;&#x9;&#x9;&#x9;&#x9; M616.2,326.992h-4.405c-5.002,0-8.788,0.876-11.355,2.621c-2.106,1.429-3.166,3.27-3.166,5.523c0,1.98,0.798,3.636,2.412,4.969&#xA;&#x9;&#x9;&#x9;&#x9;c1.601,1.333,3.785,2.002,6.532,2.002c3.673,0,6.995-0.85,9.982-2.553V326.992z"></path>
&#x9;&#x9;&#x9;<path d="M630.788,344.327v-32.312c7.453-2.727,12.58-4.092,15.379-4.092c1.93,0,3.704,0.318,5.305,0.955&#xA;&#x9;&#x9;&#x9;&#x9;c1.617,0.638,2.983,1.53,4.113,2.671c1.13,1.142,1.997,2.524,2.62,4.141c0.621,1.619,0.924,3.397,0.924,5.341v23.297h-4.189&#xA;&#x9;&#x9;&#x9;&#x9;V321.03c0-1.388-0.224-2.67-0.687-3.851c-0.463-1.178-1.095-2.204-1.893-3.085c-0.806-0.875-1.77-1.557-2.896-2.046&#xA;&#x9;&#x9;&#x9;&#x9;c-1.114-0.484-2.363-0.726-3.752-0.726c-3.391,0-6.974,0.902-10.736,2.704v30.3H630.788z"></path>
&#x9;&#x9;&#x9;<path d="M694.024,344.256c-3.265,0.834-6.408,1.249-9.425,1.249c-5.419,0-9.69-1.801-12.81-5.408&#xA;&#x9;&#x9;&#x9;&#x9;c-2.973-3.419-4.473-7.879-4.473-13.383c0-5.453,1.5-9.937,4.473-13.45c3.17-3.651,7.435-5.476,12.81-5.476&#xA;&#x9;&#x9;&#x9;&#x9;c3.122,0,6.25,0.437,9.425,1.316v3.604c-3.025-1.015-6.168-1.523-9.425-1.523c-4.046,0-7.256,1.545-9.64,4.635&#xA;&#x9;&#x9;&#x9;&#x9;c-2.29,2.95-3.439,6.572-3.439,10.861c0,4.245,1.149,7.842,3.439,10.794c2.384,3.088,5.594,4.634,9.64,4.634&#xA;&#x9;&#x9;&#x9;&#x9;c3.256,0,6.399-0.485,9.425-1.455V344.256z"></path>
&#x9;&#x9;&#x9;<path d="M732.419,326.992c0,5.594-1.396,10.009-4.204,13.243c-2.881,3.468-7.063,5.202-12.513,5.202&#xA;&#x9;&#x9;&#x9;&#x9;c-5.42,0-9.645-1.873-12.661-5.62c-2.897-3.512-4.338-8.064-4.338-13.657c0-5.455,1.419-9.87,4.271-13.244&#xA;&#x9;&#x9;&#x9;&#x9;c3.017-3.468,7.242-5.202,12.66-5.202c5.318,0,9.484,1.896,12.515,5.687C731,316.961,732.419,321.494,732.419,326.992z&#xA;&#x9;&#x9;&#x9;&#x9; M703.309,326.124c0,4.568,0.971,8.257,2.897,11.071c2.195,3.228,5.36,4.841,9.496,4.841c4.166,0,7.287-1.475,9.348-4.428&#xA;&#x9;&#x9;&#x9;&#x9;c1.836-2.534,2.763-6.087,2.763-10.652c0-4.519-0.949-8.211-2.83-11.071c-2.151-3.182-5.271-4.774-9.35-4.774&#xA;&#x9;&#x9;&#x9;&#x9;c-4.179,0-7.322,1.456-9.427,4.361C704.28,318.1,703.309,321.651,703.309,326.124z"></path>
&#x9;&#x9;&#x9;<path d="M774.772,307.855c3.38,0,6.714,0.602,10.004,1.804v-18.305h4.204v51.101c-4.496,1.94-8.833,2.911-13.014,2.911&#xA;&#x9;&#x9;&#x9;&#x9;c-5.45,0-9.856-1.825-13.199-5.477c-3.406-3.697-5.092-8.252-5.092-13.661c0-5.408,1.508-9.82,4.539-13.243&#xA;&#x9;&#x9;&#x9;&#x9;C765.192,309.566,769.367,307.855,774.772,307.855z M775.173,311.253c-4.199,0-7.42,1.453-9.668,4.368&#xA;&#x9;&#x9;&#x9;&#x9;c-2.145,2.727-3.224,6.263-3.224,10.606c0,4.345,1.28,8.023,3.841,11.024c2.649,3.237,6.086,4.856,10.288,4.856&#xA;&#x9;&#x9;&#x9;&#x9;c2.382,0,5.165-0.601,8.366-1.802v-27.321C781.814,311.831,778.613,311.253,775.173,311.253z"></path>
&#x9;&#x9;&#x9;<path d="M813.521,307.787c3.674,0,6.799,1.316,9.375,3.949c2.567,2.592,3.852,5.733,3.852,9.433c0,2.076-0.723,3.742-2.168,4.991&#xA;&#x9;&#x9;&#x9;&#x9;c-1.445,1.247-3.275,1.869-5.491,1.869h-18.002c0.179,4.006,1.332,7.293,3.457,9.867c2.247,2.763,5.265,4.14,9.039,4.14&#xA;&#x9;&#x9;&#x9;&#x9;c3.683,0,7.351-0.668,11.036-2.008v3.742c-3.582,1.109-7.263,1.666-11.036,1.666c-5.48,0-9.673-1.806-12.564-5.408&#xA;&#x9;&#x9;&#x9;&#x9;c-2.747-3.377-4.128-7.838-4.128-13.383c0-5.409,1.313-9.802,3.927-13.176C803.755,309.683,807.995,307.787,813.521,307.787z&#xA;&#x9;&#x9;&#x9;&#x9; M822.56,321.169c0-2.497-0.906-4.784-2.688-6.868c-1.798-2.076-3.888-3.118-6.284-3.118c-3.729,0-6.725,1.316-8.973,3.953&#xA;&#x9;&#x9;&#x9;&#x9;c-2.038,2.449-3.204,5.616-3.527,9.497h18.012c0.929,0,1.731-0.334,2.419-1.004C822.209,322.96,822.56,322.14,822.56,321.169z"></path>
&#x9;&#x9;&#x9;<path d="M858.822,322.764v21.492h-4.204v-47.147c4.598-2.035,8.921-3.051,13.014-3.051c3.897,0,7.196,1.316,9.899,3.949&#xA;&#x9;&#x9;&#x9;&#x9;c2.718,2.637,4.069,5.872,4.069,9.708c0,4.255-1.501,7.835-4.472,10.747c-2.988,2.866-6.615,4.302-10.871,4.302H858.822z&#xA;&#x9;&#x9;&#x9;&#x9; M858.822,319.364h7.436c3.075,0,5.688-1.15,7.839-3.456c2.195-2.348,3.3-5.09,3.3-8.224c0-2.673-0.955-5.044-2.881-7.121&#xA;&#x9;&#x9;&#x9;&#x9;c-1.926-2.07-4.227-3.108-6.883-3.108c-2.613,0-5.555,0.574-8.81,1.729V319.364z"></path>
&#x9;&#x9;&#x9;<path d="M902.586,311.323c-3.255,0-6.465,0.53-9.631,1.594v31.41h-4.203v-33.573c4.271-1.888,9.011-2.832,14.241-2.832&#xA;&#x9;&#x9;&#x9;&#x9;c0.503,0,0.943,0,1.317,0c0.358,0,0.664,0.027,0.889,0.071v3.468c-0.643-0.048-1.184-0.082-1.613-0.105&#xA;&#x9;&#x9;&#x9;&#x9;C903.149,311.334,902.81,311.323,902.586,311.323z"></path>
&#x9;&#x9;&#x9;<path d="M942.7,326.992c0,5.594-1.396,10.009-4.204,13.243c-2.881,3.468-7.063,5.202-12.512,5.202&#xA;&#x9;&#x9;&#x9;&#x9;c-5.421,0-9.632-1.873-12.662-5.62c-2.898-3.512-4.338-8.064-4.338-13.657c0-5.455,1.418-9.87,4.271-13.244&#xA;&#x9;&#x9;&#x9;&#x9;c3.027-3.468,7.241-5.202,12.662-5.202c5.315,0,9.497,1.896,12.512,5.687C941.281,316.961,942.7,321.494,942.7,326.992z&#xA;&#x9;&#x9;&#x9;&#x9; M913.59,326.124c0,4.568,0.971,8.257,2.898,11.071c2.194,3.228,5.36,4.841,9.497,4.841c4.165,0,7.286-1.475,9.36-4.428&#xA;&#x9;&#x9;&#x9;&#x9;c1.822-2.534,2.749-6.087,2.749-10.652c0-4.519-0.949-8.211-2.829-11.071c-2.151-3.182-5.271-4.774-9.347-4.774&#xA;&#x9;&#x9;&#x9;&#x9;c-4.182,0-7.325,1.456-9.429,4.361C914.562,318.1,913.59,321.651,913.59,326.124z"></path>
&#x9;&#x9;&#x9;<path d="M950.62,309.103l11.692,30.369l10.803-30.369h3.583l-12.594,35.153h-4.539l-13.432-35.153H950.62z"></path>
&#x9;&#x9;&#x9;<path d="M996.754,307.787c3.685,0,6.815,1.316,9.391,3.949c2.568,2.592,3.853,5.733,3.853,9.433c0,2.076-0.722,3.742-2.167,4.991&#xA;&#x9;&#x9;&#x9;&#x9;c-1.461,1.247-3.29,1.869-5.491,1.869h-18.003c0.181,4.006,1.334,7.293,3.444,9.867c2.262,2.763,5.264,4.14,9.038,4.14&#xA;&#x9;&#x9;&#x9;&#x9;c3.684,0,7.367-0.668,11.052-2.008v3.742c-3.595,1.109-7.279,1.666-11.052,1.666c-5.465,0-9.658-1.806-12.562-5.408&#xA;&#x9;&#x9;&#x9;&#x9;c-2.75-3.377-4.123-7.838-4.123-13.383c0-5.409,1.306-9.802,3.919-13.176C987.004,309.683,991.242,307.787,996.754,307.787z&#xA;&#x9;&#x9;&#x9;&#x9; M1005.794,321.169c0-2.497-0.892-4.784-2.689-6.868c-1.798-2.076-3.887-3.118-6.284-3.118c-3.73,0-6.709,1.316-8.972,3.953&#xA;&#x9;&#x9;&#x9;&#x9;c-2.022,2.449-3.198,5.616-3.513,9.497h18.013c0.914,0,1.731-0.334,2.42-1.004C1005.457,322.96,1005.794,322.14,1005.794,321.169&#xA;&#x9;&#x9;&#x9;&#x9;z"></path>
&#x9;&#x9;&#x9;<path d="M1032.261,307.787c3.685,0,6.815,1.316,9.392,3.949c2.567,2.592,3.852,5.733,3.852,9.433&#xA;&#x9;&#x9;&#x9;&#x9;c0,2.076-0.722,3.742-2.167,4.991c-1.46,1.247-3.29,1.869-5.49,1.869h-18.015c0.191,4.006,1.345,7.293,3.456,9.867&#xA;&#x9;&#x9;&#x9;&#x9;c2.26,2.763,5.264,4.14,9.037,4.14c3.683,0,7.367-0.668,11.051-2.008v3.742c-3.594,1.109-7.279,1.666-11.051,1.666&#xA;&#x9;&#x9;&#x9;&#x9;c-5.466,0-9.658-1.806-12.563-5.408c-2.748-3.377-4.122-7.838-4.122-13.383c0-5.409,1.307-9.802,3.92-13.176&#xA;&#x9;&#x9;&#x9;&#x9;C1022.511,309.683,1026.736,307.787,1032.261,307.787z M1041.3,321.169c0-2.497-0.891-4.784-2.688-6.868&#xA;&#x9;&#x9;&#x9;&#x9;c-1.797-2.076-3.887-3.118-6.284-3.118c-3.729,0-6.709,1.316-8.972,3.953c-2.023,2.449-3.199,5.616-3.524,9.497h18.024&#xA;&#x9;&#x9;&#x9;&#x9;c0.913,0,1.729-0.334,2.419-1.004C1040.964,322.96,1041.3,322.14,1041.3,321.169z"></path>
&#x9;&#x9;&#x9;<path d="M1068.797,307.855c3.379,0,6.714,0.602,10.018,1.804v-18.305h4.19v51.101c-4.495,1.94-8.833,2.911-12.998,2.911&#xA;&#x9;&#x9;&#x9;&#x9;c-5.466,0-9.871-1.825-13.214-5.477c-3.401-3.697-5.092-8.252-5.092-13.661c0-5.408,1.509-9.82,4.54-13.243&#xA;&#x9;&#x9;&#x9;&#x9;C1059.201,309.566,1063.392,307.855,1068.797,307.855z M1069.199,311.253c-4.199,0-7.434,1.453-9.668,4.368&#xA;&#x9;&#x9;&#x9;&#x9;c-2.145,2.727-3.224,6.263-3.224,10.606c0,4.345,1.281,8.023,3.841,11.024c2.649,3.237,6.088,4.856,10.288,4.856&#xA;&#x9;&#x9;&#x9;&#x9;c2.382,0,5.165-0.601,8.379-1.802v-27.321C1075.839,311.831,1072.639,311.253,1069.199,311.253z"></path>
&#x9;&#x9;&#x9;<path d="M1124.573,326.992c0,5.594-1.411,10.009-4.203,13.243c-2.896,3.468-7.062,5.202-12.527,5.202&#xA;&#x9;&#x9;&#x9;&#x9;c-5.416,0-9.631-1.873-12.662-5.62c-2.884-3.512-4.338-8.064-4.338-13.657c0-5.455,1.422-9.87,4.271-13.244&#xA;&#x9;&#x9;&#x9;&#x9;c3.031-3.468,7.241-5.202,12.662-5.202c5.328,0,9.497,1.896,12.528,5.687C1123.141,316.961,1124.573,321.494,1124.573,326.992z&#xA;&#x9;&#x9;&#x9;&#x9; M1095.464,326.124c0,4.568,0.956,8.257,2.882,11.071c2.21,3.228,5.372,4.841,9.497,4.841c4.181,0,7.295-1.475,9.362-4.428&#xA;&#x9;&#x9;&#x9;&#x9;c1.836-2.534,2.747-6.087,2.747-10.652c0-4.519-0.934-8.211-2.814-11.071c-2.167-3.182-5.272-4.774-9.363-4.774&#xA;&#x9;&#x9;&#x9;&#x9;c-4.181,0-7.309,1.456-9.429,4.361C1096.42,318.1,1095.464,321.651,1095.464,326.124z"></path>
&#x9;&#x9;&#x9;<path d="M1146.583,311.323c-3.255,0-6.465,0.53-9.631,1.594v31.41h-4.203v-33.573c4.271-1.888,9.012-2.832,14.252-2.832&#xA;&#x9;&#x9;&#x9;&#x9;c0.508,0,0.932,0,1.307,0c0.372,0,0.664,0.027,0.888,0.071v3.468c-0.643-0.048-1.184-0.082-1.609-0.105&#xA;&#x9;&#x9;&#x9;&#x9;C1147.146,311.334,1146.807,311.323,1146.583,311.323z"></path>
&#x9;&#x9;&#x9;<path d="M1169.668,307.787c3.685,0,6.814,1.316,9.392,3.949c2.569,2.592,3.854,5.733,3.854,9.433c0,2.076-0.725,3.742-2.17,4.991&#xA;&#x9;&#x9;&#x9;&#x9;c-1.445,1.247-3.275,1.869-5.49,1.869h-18.002c0.179,4.006,1.333,7.293,3.443,9.867c2.261,2.763,5.279,4.14,9.042,4.14&#xA;&#x9;&#x9;&#x9;&#x9;c3.679,0,7.363-0.668,11.047-2.008v3.742c-3.594,1.109-7.278,1.666-11.047,1.666c-5.47,0-9.65-1.806-12.552-5.408&#xA;&#x9;&#x9;&#x9;&#x9;c-2.764-3.377-4.137-7.838-4.137-13.383c0-5.409,1.306-9.802,3.92-13.176C1159.918,309.683,1164.157,307.787,1169.668,307.787z&#xA;&#x9;&#x9;&#x9;&#x9; M1178.723,321.169c0-2.497-0.905-4.784-2.705-6.868c-1.782-2.076-3.887-3.118-6.276-3.118c-3.722,0-6.717,1.316-8.979,3.953&#xA;&#x9;&#x9;&#x9;&#x9;c-2.023,2.449-3.184,5.616-3.512,9.497h18.012c0.928,0,1.729-0.334,2.419-1.004&#xA;&#x9;&#x9;&#x9;&#x9;C1178.371,322.96,1178.723,322.14,1178.723,321.169z"></path>
&#x9;&#x9;&#x9;<path d="M1208.586,312.778c-2.468-1.11-5.093-1.666-7.879-1.666c-5.302,0-7.948,2.012-7.948,6.033&#xA;&#x9;&#x9;&#x9;&#x9;c0,2.175,1.522,4.048,4.583,5.619l8.631,4.435c3.061,2.129,4.607,4.811,4.607,8.046c0,3.467-1.397,6.124-4.204,7.973&#xA;&#x9;&#x9;&#x9;&#x9;c-2.334,1.433-5.115,2.148-8.324,2.148c-3.764,0-6.951-0.485-9.564-1.456v-4.093c3.031,1.527,6.129,2.29,9.295,2.29&#xA;&#x9;&#x9;&#x9;&#x9;c2.239,0,4.167-0.556,5.778-1.666c1.792-1.249,2.681-2.843,2.681-4.784c0-2.449-1.523-4.506-4.583-6.168&#xA;&#x9;&#x9;&#x9;&#x9;c-1.413-0.786-2.838-1.527-4.25-2.219c-1.411-0.693-2.8-1.457-4.166-2.287c-1.637-0.924-2.826-2.023-3.568-3.295&#xA;&#x9;&#x9;&#x9;&#x9;c-0.743-1.271-1.121-2.647-1.121-4.126c0-3.373,1.194-5.916,3.583-7.627c2.104-1.478,4.799-2.219,8.042-2.219&#xA;&#x9;&#x9;&#x9;&#x9;c2.896,0,5.702,0.485,8.405,1.456V312.778z"></path>
&#x9;&#x9;</g>
&#x9;</g>
&#x9;<g>
&#x9;&#x9;<g>
&#x9;&#x9;&#x9;<path d="M505.175,173.878c0.298-1.194,0.637-2.299,1.029-3.314c0.375-1.016,0.724-1.942,1.014-2.778l47.944-120.264&#xA;&#x9;&#x9;&#x9;&#x9;c0.173-0.656,0.666-1.389,1.462-2.195c0.796-0.806,1.882-1.21,3.244-1.21h14.326c1.419,0,2.445,0.358,3.071,1.075&#xA;&#x9;&#x9;&#x9;&#x9;c0.616,0.717,1.07,1.344,1.375,1.882l2.925,6.989l46.958,118.381c0,0.179,0.044,0.493,0.134,0.941&#xA;&#x9;&#x9;&#x9;&#x9;c0.099,0.447,0.142,0.821,0.142,1.12c0,1.792-1.304,2.688-3.916,2.688h-17.521c-1.304,0-2.318-0.269-3.027-0.807&#xA;&#x9;&#x9;&#x9;&#x9;c-0.71-0.537-1.304-1.373-1.778-2.509l-1.597-4.121c-1.13-2.868-2.261-5.735-3.375-8.603c-1.13-2.868-2.231-5.766-3.303-8.693&#xA;&#x9;&#x9;&#x9;&#x9;h-54.866c-1.537,4.182-3.043,8.109-4.491,11.784c-1.449,3.673-2.68,6.887-3.694,9.634c-0.826,2.212-2.376,3.316-4.62,3.316&#xA;&#x9;&#x9;&#x9;&#x9;h-17.786c-1.131,0-2.028-0.208-2.711-0.627c-0.695-0.417-1.027-1.044-1.027-1.882&#xA;&#x9;&#x9;&#x9;&#x9;C505.088,174.327,505.117,174.058,505.175,173.878z M567.082,78.261c-3.216,8.244-6.393,16.788-9.575,25.629&#xA;&#x9;&#x9;&#x9;&#x9;c-3.162,8.843-6.359,17.356-9.556,25.54h37.887L567.082,78.261z M566.01,7.376c0.476-1.314,1.144-2.27,1.999-2.868&#xA;&#x9;&#x9;&#x9;&#x9;c0.853-0.597,1.795-0.897,2.8-0.897h15.826c0.955,0,1.622,0.224,2.014,0.673c0.376,0.447,0.564,1,0.564,1.657&#xA;&#x9;&#x9;&#x9;&#x9;c0,0.479-0.043,1.002-0.13,1.568c-0.087,0.568-0.247,1.12-0.487,1.658l-8.45,18.998c-1.13,2.509-2.694,3.764-4.706,3.764h-13.877&#xA;&#x9;&#x9;&#x9;&#x9;c-1.015,0-1.666-0.238-1.955-0.717c-0.305-0.478-0.449-1.044-0.449-1.702c0-0.597,0.028-1.194,0.086-1.792&#xA;&#x9;&#x9;&#x9;&#x9;c0.057-0.596,0.246-1.224,0.536-1.881L566.01,7.376z"></path>
&#x9;&#x9;&#x9;<path d="M729.913,121.543c0-1.194,0.317-2.15,0.985-2.867c0.641-0.717,1.621-1.075,2.926-1.075h14.499&#xA;&#x9;&#x9;&#x9;&#x9;c1.004,0,1.955,0.358,2.847,1.075c0.891,0.717,1.339,1.673,1.339,2.867v41.134c0,0.717-0.189,1.403-0.536,2.06&#xA;&#x9;&#x9;&#x9;&#x9;c-0.362,0.658-1.015,1.286-1.955,1.882c-0.059,0-0.09,0.015-0.09,0.046c0,0.03-0.036,0.045-0.099,0.045&#xA;&#x9;&#x9;&#x9;&#x9;c-2.781,1.971-5.78,3.734-8.981,5.288c-3.201,1.554-6.547,2.853-10.053,3.896c-3.491,1.048-7.083,1.853-10.761,2.421&#xA;&#x9;&#x9;&#x9;&#x9;c-3.666,0.567-7.344,0.851-11.023,0.851c-6.229,0-12.24-0.807-18.047-2.419c-5.812-1.613-11.226-3.913-16.237-6.9&#xA;&#x9;&#x9;&#x9;&#x9;c-5.012-2.987-9.574-6.557-13.688-10.71c-4.129-4.151-7.672-8.75-10.63-13.799c-2.971-5.048-5.258-10.485-6.852-16.31&#xA;&#x9;&#x9;&#x9;&#x9;c-1.599-5.825-2.405-11.904-2.405-18.237c0-6.272,0.806-12.322,2.405-18.147c1.593-5.825,3.88-11.275,6.852-16.354&#xA;&#x9;&#x9;&#x9;&#x9;c2.958-5.077,6.502-9.707,10.63-13.89c4.114-4.181,8.691-7.766,13.731-10.755c5.04-2.985,10.458-5.3,16.238-6.944&#xA;&#x9;&#x9;&#x9;&#x9;c5.779-1.642,11.804-2.465,18.09-2.465c4.215,0,8.401,0.375,12.587,1.121c4.187,0.749,8.228,1.869,12.139,3.361&#xA;&#x9;&#x9;&#x9;&#x9;c1.476,0.598,3.244,1.344,5.286,2.24c2.058,0.896,3.998,1.882,5.838,2.958c1.828,1.075,3.388,2.181,4.664,3.315&#xA;&#x9;&#x9;&#x9;&#x9;c1.274,1.136,1.912,2.24,1.912,3.317c0,0.479-0.26,1.24-0.796,2.284c-0.536,1.046-1.202,2.226-1.998,3.54&#xA;&#x9;&#x9;&#x9;&#x9;c-0.813,1.314-1.71,2.673-2.725,4.077c-1,1.404-1.985,2.674-2.925,3.809c-0.957,1.136-1.812,2.077-2.578,2.823&#xA;&#x9;&#x9;&#x9;&#x9;c-0.779,0.747-1.378,1.12-1.782,1.12c-0.362,0-0.785-0.074-1.289-0.224c-0.508-0.149-1.029-0.432-1.565-0.852&#xA;&#x9;&#x9;&#x9;&#x9;c-3.725-2.628-7.938-4.718-12.619-6.272c-4.69-1.553-9.462-2.33-14.322-2.33c-6.345,0-12.153,1.196-17.428,3.584&#xA;&#x9;&#x9;&#x9;&#x9;c-5.284,2.39-9.818,5.616-13.612,9.679c-3.795,4.063-6.764,8.768-8.894,14.114c-2.128,5.347-3.2,10.977-3.2,16.892&#xA;&#x9;&#x9;&#x9;&#x9;c0,6.094,1.144,11.815,3.417,17.162c2.288,5.347,5.375,10.007,9.256,13.98c3.881,3.973,8.429,7.11,13.644,9.409&#xA;&#x9;&#x9;&#x9;&#x9;c5.229,2.301,10.762,3.45,16.644,3.45c2.185,0,4.358-0.164,6.489-0.493c2.129-0.327,4.127-0.747,5.996-1.255&#xA;&#x9;&#x9;&#x9;&#x9;c1.868-0.506,3.548-1.075,5.026-1.702c1.485-0.627,2.693-1.24,3.65-1.836V121.543z"></path>
&#x9;&#x9;&#x9;<path d="M774.828,110.79c0-6.272,0.796-12.336,2.389-18.191c1.608-5.854,3.895-11.321,6.851-16.399&#xA;&#x9;&#x9;&#x9;&#x9;c2.969-5.078,6.517-9.708,10.632-13.89c4.113-4.181,8.705-7.751,13.746-10.708c5.04-2.958,10.443-5.256,16.223-6.901&#xA;&#x9;&#x9;&#x9;&#x9;c5.779-1.642,11.819-2.465,18.106-2.465c6.228,0,12.225,0.823,18.003,2.465c5.78,1.645,11.197,3.943,16.238,6.901&#xA;&#x9;&#x9;&#x9;&#x9;c5.039,2.958,9.631,6.527,13.773,10.708c4.157,4.182,7.699,8.812,10.633,13.89c2.94,5.079,5.213,10.545,6.851,16.399&#xA;&#x9;&#x9;&#x9;&#x9;c1.622,5.856,2.448,11.949,2.448,18.282c0,6.333-0.826,12.397-2.448,18.191c-1.638,5.794-3.911,11.231-6.851,16.309&#xA;&#x9;&#x9;&#x9;&#x9;c-2.934,5.079-6.476,9.695-10.633,13.847c-4.142,4.153-8.734,7.706-13.773,10.663c-5.041,2.957-10.458,5.243-16.238,6.856&#xA;&#x9;&#x9;&#x9;&#x9;c-5.779,1.613-11.809,2.419-18.091,2.419c-6.286,0-12.327-0.807-18.105-2.419c-5.779-1.613-11.192-3.913-16.223-6.9&#xA;&#x9;&#x9;&#x9;&#x9;c-5.04-2.987-9.633-6.557-13.746-10.71c-4.129-4.151-7.648-8.75-10.588-13.799c-2.93-5.048-5.2-10.485-6.808-16.31&#xA;&#x9;&#x9;&#x9;&#x9;C775.624,123.202,774.828,117.123,774.828,110.79z M800.522,110.611c0,6.035,1.086,11.68,3.245,16.937&#xA;&#x9;&#x9;&#x9;&#x9;c2.173,5.257,5.127,9.829,8.894,13.71c3.765,3.885,8.212,6.962,13.34,9.231c5.127,2.27,10.689,3.405,16.687,3.405&#xA;&#x9;&#x9;&#x9;&#x9;c5.923,0,11.457-1.134,16.585-3.405c5.126-2.269,9.588-5.346,13.383-9.231c3.794-3.881,6.767-8.453,8.937-13.71&#xA;&#x9;&#x9;&#x9;&#x9;c2.157-5.257,3.245-10.902,3.245-16.937c0-5.973-1.087-11.59-3.245-16.848c-2.17-5.256-5.143-9.841-8.937-13.755&#xA;&#x9;&#x9;&#x9;&#x9;c-3.795-3.912-8.257-7.004-13.383-9.275c-5.128-2.27-10.662-3.405-16.585-3.405c-5.997,0-11.56,1.135-16.687,3.405&#xA;&#x9;&#x9;&#x9;&#x9;c-5.128,2.271-9.575,5.364-13.34,9.275c-3.767,3.914-6.721,8.499-8.894,13.755C801.608,99.021,800.522,104.638,800.522,110.611z"></path>
&#x9;&#x9;&#x9;<path d="M934.01,48.33c0-2.809,1.311-4.212,3.925-4.212h54.418c5.997,0,11.601,1.134,16.816,3.404&#xA;&#x9;&#x9;&#x9;&#x9;c5.214,2.272,9.762,5.348,13.644,9.23c3.88,3.885,6.938,8.455,9.169,13.712c2.216,5.258,3.331,10.843,3.331,16.758&#xA;&#x9;&#x9;&#x9;&#x9;c0,4.122-0.566,8.065-1.695,11.829c-1.13,3.763-2.695,7.258-4.707,10.485c-2.014,3.225-4.418,6.139-7.2,8.737&#xA;&#x9;&#x9;&#x9;&#x9;c-2.795,2.6-5.879,4.794-9.254,6.587l23.117,45.972c0.13,0.597,0.333,1.196,0.623,1.792c0.305,0.598,0.449,1.226,0.449,1.882&#xA;&#x9;&#x9;&#x9;&#x9;c0,1.792-1.044,2.688-3.114,2.688h-20.625c-2.145,0-3.563-1.104-4.273-3.316l-21.523-43.015c-0.943,0-1.97,0.015-3.071,0.045&#xA;&#x9;&#x9;&#x9;&#x9;c-1.102,0.03-2.608,0.044-4.533,0.044c-1.927,0-4.447,0-7.561,0c-3.114,0-7.127,0-12.051,0v42.387&#xA;&#x9;&#x9;&#x9;&#x9;c0,2.57-1.362,3.854-4.084,3.854h-17.874c-1.188,0-2.144-0.313-2.854-0.941c-0.71-0.627-1.072-1.597-1.072-2.913V48.33z&#xA;&#x9;&#x9;&#x9;&#x9; M1008.992,87.356c0-2.562-0.475-5.052-1.431-7.466c-0.941-2.414-2.273-4.576-3.997-6.482c-1.725-1.907-3.767-3.458-6.142-4.649&#xA;&#x9;&#x9;&#x9;&#x9;c-2.362-1.192-4.943-1.879-7.734-2.058c-2.072-0.059-4.101-0.104-6.086-0.135c-1.998-0.028-4.054-0.044-6.183-0.044h-17.526&#xA;&#x9;&#x9;&#x9;&#x9;v41.582h23.479c1.188,0,2.303,0,3.331,0c1.043,0,2.158-0.06,3.347-0.18c2.78-0.179,5.343-0.835,7.691-1.967&#xA;&#x9;&#x9;&#x9;&#x9;c2.335-1.131,4.342-2.637,5.996-4.517c1.666-1.877,2.955-4.024,3.867-6.438C1008.532,92.587,1008.992,90.039,1008.992,87.356z"></path>
&#x9;&#x9;&#x9;<path d="M1048.653,173.878c0.289-1.194,0.637-2.299,1.027-3.314c0.377-1.016,0.725-1.942,1.015-2.778l47.939-120.264&#xA;&#x9;&#x9;&#x9;&#x9;c0.178-0.656,0.67-1.389,1.467-2.195c0.796-0.806,1.882-1.21,3.244-1.21h14.313c1.431,0,2.445,0.358,3.082,1.075&#xA;&#x9;&#x9;&#x9;&#x9;c0.609,0.717,1.071,1.344,1.377,1.882l2.926,6.989l46.958,118.381c0,0.179,0.043,0.493,0.131,0.941&#xA;&#x9;&#x9;&#x9;&#x9;c0.086,0.447,0.133,0.821,0.133,1.12c0,1.792-1.308,2.688-3.914,2.688h-17.511c-1.305,0-2.318-0.269-3.028-0.807&#xA;&#x9;&#x9;&#x9;&#x9;c-0.71-0.537-1.304-1.373-1.782-2.509l-1.593-4.121c-1.13-2.868-2.261-5.735-3.375-8.603c-1.13-2.868-2.23-5.766-3.302-8.693&#xA;&#x9;&#x9;&#x9;&#x9;h-54.867c-1.538,4.182-3.042,8.109-4.49,11.784c-1.464,3.673-2.695,6.887-3.694,9.634c-0.827,2.212-2.376,3.316-4.621,3.316&#xA;&#x9;&#x9;&#x9;&#x9;h-17.786c-1.13,0-2.044-0.208-2.723-0.627c-0.683-0.417-1.015-1.044-1.015-1.882&#xA;&#x9;&#x9;&#x9;&#x9;C1048.566,174.327,1048.595,174.058,1048.653,173.878z M1110.556,78.261c-3.212,8.244-6.398,16.788-9.571,25.629&#xA;&#x9;&#x9;&#x9;&#x9;c-3.171,8.843-6.359,17.356-9.56,25.54h37.892L1110.556,78.261z"></path>
&#x9;&#x9;</g>
&#x9;</g>
&#x9;<g>
&#x9;&#x9;<g>
&#x9;&#x9;&#x9;<path fill="#8B1918" d="M356.535,174.485h-162.64l-0.02-165.39c0-2.562-4.295-6.595-9.582-6.595&#xA;&#x9;&#x9;&#x9;&#x9;c-5.304,0-10.174,3.512-10.096,6.534v165.451H11.779c-5.297,0-9.498,4.287-9.498,9.578c0,5.296,4.222,10.094,9.519,10.094&#xA;&#x9;&#x9;&#x9;&#x9;h162.397v162.907c0,5.289,4.553,8.436,9.845,8.436c5.303,0,9.833-3.128,9.833-8.416V194.157h162.734&#xA;&#x9;&#x9;&#x9;&#x9;c5.29,0,8.672-4.797,8.672-10.094C365.28,176.965,356.535,174.485,356.535,174.485z M215.612,174.485"></path>
&#x9;&#x9;&#x9;<path fill="#8B1918" d="M339.625,218.109H227.423c-5.307,0-9.582,4.29-9.582,9.581v112.177c0,5.285,4.276,9.578,9.582,9.578&#xA;&#x9;&#x9;&#x9;&#x9;c5.281,0,9.581-4.293,9.581-9.578V237.27h102.621c5.302,0,9.591-4.292,9.591-9.58&#xA;&#x9;&#x9;&#x9;&#x9;C349.216,222.399,344.927,218.109,339.625,218.109L339.625,218.109z M339.625,218.109"></path>
&#x9;&#x9;&#x9;<path fill="#8B1918" d="M140.722,218.109H28.511c-5.297,0-9.59,4.29-9.59,9.581c0,5.288,4.292,9.58,9.59,9.58h102.629v102.598&#xA;&#x9;&#x9;&#x9;&#x9;c0,5.285,4.292,9.578,9.583,9.578c5.288,0,9.582-4.293,9.582-9.578V227.69C150.304,222.399,146.011,218.109,140.722,218.109&#xA;&#x9;&#x9;&#x9;&#x9;L140.722,218.109z M140.722,218.109"></path>
&#x9;&#x9;&#x9;<path fill="#8B1918" d="M140.65,19.274c-5.292,0-9.584,4.289-9.584,9.58V131.45H28.433c-5.289,0-9.583,4.29-9.583,9.582&#xA;&#x9;&#x9;&#x9;&#x9;c0,5.292,4.294,9.581,9.583,9.581H140.65c5.287,0,9.581-4.289,9.581-9.581V28.854C150.231,23.563,145.938,19.274,140.65,19.274&#xA;&#x9;&#x9;&#x9;&#x9;L140.65,19.274z M140.65,19.274"></path>
&#x9;&#x9;&#x9;<path fill="#8B1918" d="M227.423,150.612h112.202c5.302,0,9.591-4.289,9.591-9.581c0-5.292-4.289-9.582-9.591-9.582H237.004&#xA;&#x9;&#x9;&#x9;&#x9;V28.854c0-5.291-4.3-9.58-9.581-9.58c-5.307,0-9.582,4.289-9.582,9.58v112.178C217.841,146.324,222.117,150.612,227.423,150.612&#xA;&#x9;&#x9;&#x9;&#x9;L227.423,150.612z M227.423,150.612"></path>
&#x9;&#x9;&#x9;<path fill="#8B1918" d="M97.638,264.473c-5.291,0-9.587,4.288-9.587,9.581v63.649c0,5.292,4.296,9.586,9.587,9.586&#xA;&#x9;&#x9;&#x9;&#x9;c5.297,0,9.581-4.294,9.581-9.586v-66.941C107.219,265.473,102.935,264.473,97.638,264.473L97.638,264.473z M97.638,264.473"></path>
&#x9;&#x9;&#x9;<path fill="#8B1918" d="M270.62,264.499c-5.302,0-9.58,1.583-9.58,6.875v66.357c0,5.292,4.277,9.583,9.58,9.583&#xA;&#x9;&#x9;&#x9;&#x9;c5.288,0,9.585-4.291,9.585-9.583v-63.652C280.205,268.789,275.908,264.499,270.62,264.499L270.62,264.499z M270.62,264.499"></path>
&#x9;&#x9;&#x9;<path fill="#8B1918" d="M97.52,107.481c5.292,0,9.583-4.289,9.583-9.582V34.247c0-5.293-4.291-9.583-9.583-9.583&#xA;&#x9;&#x9;&#x9;&#x9;c-5.296,0-9.583,4.29-9.583,9.583v63.652C87.937,103.192,92.223,107.481,97.52,107.481L97.52,107.481z M97.52,107.481"></path>
&#x9;&#x9;&#x9;<path fill="#8B1918" d="M270.62,105.467c5.288,0,9.585-4.289,9.585-9.582V32.231c0-5.292-4.297-9.581-9.585-9.581&#xA;&#x9;&#x9;&#x9;&#x9;c-5.302,0-9.58,4.289-9.58,9.581v63.653C261.04,101.178,265.318,105.467,270.62,105.467L270.62,105.467z M270.62,105.467"></path>
&#x9;&#x9;&#x9;<path fill="#8B1918" d="M30.969,107.481H97.52c5.292,0,6.712-4.289,6.712-9.582c0-5.29-4.291-9.58-9.588-9.58H30.969&#xA;&#x9;&#x9;&#x9;&#x9;c-5.292,0-9.586,4.29-9.586,9.58C21.383,103.192,25.677,107.481,30.969,107.481L30.969,107.481z M30.969,107.481"></path>
&#x9;&#x9;&#x9;<path fill="#8B1918" d="M33.967,280.345h63.671c5.297,0,9.581-4.287,9.581-9.582c0-5.29-4.284-9.579-9.581-9.579H33.967&#xA;&#x9;&#x9;&#x9;&#x9;c-5.299,0-9.585,4.29-9.585,9.579C24.383,276.058,28.669,280.345,33.967,280.345L33.967,280.345z M33.967,280.345"></path>
&#x9;&#x9;&#x9;<path fill="#8B1918" d="M334.292,261.209H270.62c-5.302,0-9.58,4.289-9.58,9.578c0,5.296,4.277,9.583,9.58,9.583h63.671&#xA;&#x9;&#x9;&#x9;&#x9;c5.282,0,9.58-4.288,9.58-9.583C343.872,265.498,339.574,261.209,334.292,261.209L334.292,261.209z M334.292,261.209"></path>
&#x9;&#x9;&#x9;<path fill="#8B1918" d="M334.292,88.319H270.62c-5.302,0-9.58,4.29-9.58,9.58c0,5.293,4.277,9.582,9.58,9.582h63.671&#xA;&#x9;&#x9;&#x9;&#x9;c5.282,0,9.58-4.289,9.58-9.582C343.872,92.609,339.574,88.319,334.292,88.319L334.292,88.319z M334.292,88.319"></path>
&#x9;&#x9;</g>
&#x9;</g>
</g>
</svg>