<?xml version="1.0"?>

<svg version="1.1" id="Capa_1" xmlns="http://www.w3.org/2000/svg" xmlns:xlink="http://www.w3.org/1999/xlink" x="0px" y="0px" viewBox="0 0 1304 368" enable-background="new 0 0 1304 368" xml:space="preserve">
<g>
&#x9;<g>
&#x9;&#x9;<g>
&#x9;&#x9;&#x9;<path d="M582.181,91.97c1.281,0.748,2.346,1.655,3.201,2.72c0.852,1.067,1.279,2.347,1.279,3.839c0,1.175-0.32,2.4-0.96,3.68&#xA;&#x9;&#x9;&#x9;&#x9;l-15.52,26.396c-1.814,2.455-3.734,3.68-5.759,3.68c-0.641,0-1.388-0.133-2.241-0.4c-0.854-0.265-1.707-0.665-2.56-1.2&#xA;&#x9;&#x9;&#x9;&#x9;c-6.72-4.8-13.919-8.532-21.599-11.199c-7.681-2.664-15.841-4-24.48-4c-10.879,0-20.854,2.055-29.919,6.16&#xA;&#x9;&#x9;&#x9;&#x9;c-9.068,4.106-16.907,9.678-23.52,16.717c-6.614,7.039-11.759,15.306-15.439,24.797c-3.681,9.494-5.52,19.678-5.52,30.557&#xA;&#x9;&#x9;&#x9;&#x9;c0,10.773,1.839,20.877,5.52,30.316c3.68,9.439,8.825,17.678,15.439,24.717c6.613,7.038,14.452,12.585,23.52,16.637&#xA;&#x9;&#x9;&#x9;&#x9;c9.065,4.055,19.04,6.08,29.919,6.08c8.64,0,16.88-1.332,24.72-4c7.839-2.665,15.064-6.399,21.68-11.199&#xA;&#x9;&#x9;&#x9;&#x9;c0.853-0.639,1.732-1.064,2.64-1.279c0.905-0.212,1.68-0.373,2.32-0.48c1.813,0,3.68,1.175,5.6,3.52l15.839,26.717&#xA;&#x9;&#x9;&#x9;&#x9;c0.641,1.28,0.961,2.455,0.961,3.52c0,1.494-0.455,2.72-1.36,3.679c-0.907,0.96-1.948,1.867-3.12,2.72&#xA;&#x9;&#x9;&#x9;&#x9;c-10.027,6.719-20.826,11.918-32.4,15.598c-11.574,3.68-23.759,5.52-36.558,5.52c-11.307,0-22.16-1.44-32.56-4.319&#xA;&#x9;&#x9;&#x9;&#x9;c-10.4-2.88-20.135-6.984-29.199-12.319c-9.068-5.333-17.308-11.704-24.72-19.118c-7.415-7.412-13.788-15.623-19.12-24.637&#xA;&#x9;&#x9;&#x9;&#x9;c-5.335-9.011-9.44-18.718-12.32-29.116c-2.879-10.399-4.32-21.25-4.32-32.556c0-11.304,1.44-22.158,4.32-32.556&#xA;&#x9;&#x9;&#x9;&#x9;c2.88-10.399,6.985-20.158,12.32-29.277c5.333-9.119,11.705-17.41,19.12-24.877c7.412-7.464,15.651-13.838,24.72-19.118&#xA;&#x9;&#x9;&#x9;&#x9;c9.064-5.279,18.799-9.384,29.199-12.318c10.4-2.933,21.253-4.4,32.56-4.4c12.691,0,24.744,1.788,36.159,5.359&#xA;&#x9;&#x9;&#x9;&#x9;C561.435,80.107,572.154,85.251,582.181,91.97z"></path>
&#x9;&#x9;&#x9;<path d="M620.578,193.718c0-11.199,1.44-22.023,4.32-32.476c2.88-10.452,6.985-20.211,12.32-29.277&#xA;&#x9;&#x9;&#x9;&#x9;c5.332-9.064,11.705-17.33,19.119-24.797c7.412-7.464,15.652-13.838,24.72-19.117c9.065-5.28,18.799-9.384,29.199-12.319&#xA;&#x9;&#x9;&#x9;&#x9;c10.4-2.932,21.252-4.4,32.56-4.4c11.199,0,21.999,1.468,32.399,4.4c10.4,2.935,20.132,7.039,29.199,12.319&#xA;&#x9;&#x9;&#x9;&#x9;c9.065,5.279,17.333,11.653,24.799,19.117c7.465,7.467,13.84,15.733,19.12,24.797c5.28,9.066,9.385,18.825,12.319,29.277&#xA;&#x9;&#x9;&#x9;&#x9;c2.933,10.454,4.4,21.333,4.4,32.636c0,11.306-1.467,22.132-4.4,32.476c-2.935,10.346-7.039,20.053-12.319,29.117&#xA;&#x9;&#x9;&#x9;&#x9;c-5.28,9.066-11.655,17.306-19.12,24.717c-7.467,7.414-15.734,13.758-24.799,19.038c-9.067,5.279-18.799,9.358-29.199,12.239&#xA;&#x9;&#x9;&#x9;&#x9;c-10.401,2.879-21.255,4.319-32.56,4.319c-11.308,0-22.159-1.44-32.56-4.319c-10.4-2.88-20.135-6.984-29.199-12.319&#xA;&#x9;&#x9;&#x9;&#x9;c-9.067-5.333-17.308-11.704-24.72-19.118c-7.414-7.412-13.759-15.623-19.039-24.637c-5.28-9.011-9.36-18.718-12.24-29.116&#xA;&#x9;&#x9;&#x9;&#x9;C622.019,215.876,620.578,205.024,620.578,193.718z M666.817,193.398c0,10.774,1.945,20.853,5.839,30.237&#xA;&#x9;&#x9;&#x9;&#x9;c3.893,9.386,9.226,17.545,16,24.477c6.773,6.935,14.773,12.426,24,16.479c9.225,4.054,19.224,6.078,29.999,6.078&#xA;&#x9;&#x9;&#x9;&#x9;c10.665,0,20.612-2.024,29.839-6.078c9.225-4.052,17.252-9.544,24.08-16.479c6.824-6.932,12.185-15.09,16.079-24.477&#xA;&#x9;&#x9;&#x9;&#x9;c3.893-9.384,5.84-19.463,5.84-30.237c0-10.664-1.947-20.69-5.84-30.076c-3.895-9.384-9.255-17.571-16.079-24.557&#xA;&#x9;&#x9;&#x9;&#x9;c-6.827-6.984-14.855-12.503-24.08-16.558c-9.228-4.052-19.175-6.08-29.839-6.08c-10.775,0-20.774,2.028-29.999,6.08&#xA;&#x9;&#x9;&#x9;&#x9;c-9.227,4.055-17.227,9.574-24,16.558c-6.774,6.986-12.107,15.173-16,24.557C668.762,172.708,666.817,182.734,666.817,193.398z"></path>
&#x9;&#x9;&#x9;<path d="M906.97,82.211c0-5.012,2.345-7.519,7.04-7.519h97.917c10.773,0,20.852,2.027,30.239,6.079&#xA;&#x9;&#x9;&#x9;&#x9;c9.384,4.055,17.572,9.547,24.56,16.478c6.985,6.935,12.479,15.094,16.479,24.478c3.999,9.387,5.999,19.357,5.999,29.916&#xA;&#x9;&#x9;&#x9;&#x9;c0,7.359-1.015,14.398-3.04,21.117c-2.027,6.719-4.854,12.959-8.48,18.718c-3.627,5.759-7.947,10.959-12.959,15.599&#xA;&#x9;&#x9;&#x9;&#x9;c-5.016,4.64-10.561,8.559-16.64,11.758l41.598,82.07c0.213,1.067,0.585,2.135,1.121,3.2c0.533,1.067,0.8,2.187,0.8,3.36&#xA;&#x9;&#x9;&#x9;&#x9;c0,3.199-1.868,4.799-5.6,4.799h-37.119c-3.84,0-6.399-1.973-7.68-5.919l-38.719-76.79c-1.708,0-3.548,0.027-5.52,0.079&#xA;&#x9;&#x9;&#x9;&#x9;c-1.975,0.055-4.695,0.08-8.16,0.08c-3.467,0-8,0-13.599,0s-12.828,0-21.68,0v75.671c0,4.587-2.455,6.879-7.36,6.879H914.01&#xA;&#x9;&#x9;&#x9;&#x9;c-2.135,0-3.84-0.56-5.121-1.68c-1.279-1.12-1.919-2.852-1.919-5.199V82.211z M1041.846,151.883c0-4.574-0.855-9.019-2.56-13.328&#xA;&#x9;&#x9;&#x9;&#x9;c-1.707-4.31-4.107-8.169-7.199-11.574c-3.095-3.405-6.775-6.172-11.04-8.302c-4.268-2.127-8.908-3.352-13.92-3.672&#xA;&#x9;&#x9;&#x9;&#x9;c-3.735-0.105-7.388-0.185-10.959-0.24c-3.575-0.052-7.28-0.08-11.12-0.08h-31.519v74.231h42.239c2.132,0,4.132,0,6,0&#xA;&#x9;&#x9;&#x9;&#x9;c1.866,0,3.866-0.105,6-0.32c5.012-0.319,9.625-1.49,13.84-3.511c4.211-2.02,7.813-4.708,10.799-8.062&#xA;&#x9;&#x9;&#x9;&#x9;c2.984-3.352,5.305-7.184,6.96-11.493C1041.019,161.222,1041.846,156.673,1041.846,151.883z"></path>
&#x9;&#x9;&#x9;<path d="M1129.522,82.371c0-5.119,2.346-7.679,7.041-7.679h154.236c2.772,0,4.745,0.777,5.92,2.33&#xA;&#x9;&#x9;&#x9;&#x9;c1.172,1.552,1.76,3.504,1.76,5.859v28.259c0,1.927-0.668,3.64-2,5.14c-1.334,1.499-3.335,2.248-6,2.248h-113.757v48.474h87.679&#xA;&#x9;&#x9;&#x9;&#x9;c2.132-0.212,3.839,0.24,5.119,1.36c1.28,1.119,1.92,3.015,1.92,5.679v28.957c0,1.92-0.535,3.627-1.6,5.119&#xA;&#x9;&#x9;&#x9;&#x9;c-1.067,1.495-2.775,2.24-5.12,2.24h-87.998v58.073h117.917c2.985,0,4.96,0.642,5.92,1.927c0.96,1.285,1.439,3.265,1.439,5.939&#xA;&#x9;&#x9;&#x9;&#x9;v29.224c0,4.497-2.348,6.745-7.04,6.745h-158.396c-1.921,0-3.575-0.532-4.961-1.6c-1.387-1.065-2.08-2.772-2.08-5.119V82.371z"></path>
&#x9;&#x9;</g>
&#x9;</g>
&#x9;<g>
&#x9;&#x9;<path fill="#08402F" d="M21,108.563l164-85.815l164,85.815v171.634l-164,85.815L21,280.197V108.563z M11,279.843l72.091,40.423&#xA;&#x9;&#x9;&#x9;l37.109-16.262l65.624,34.232l70.384-36.813l27.193,18.345l27.69-14.473l35.965-24.454l-1.19-64.876L322,194.378v-71.842&#xA;&#x9;&#x9;&#x9;l-63.768-33.771l-4.386-21.517l-15.875-18.963l-51.902-25.538l-43.648,25.538l-17.675,19.463l-3.8,17.065L49,122.536v70.472&#xA;&#x9;&#x9;&#x9;L25.576,207.98L11,227.942V279.843z"></path>
&#x9;&#x9;<path fill="#17BF8D" d="M104,45.422l82.5-43.41l82.5,43.41v86.821l-82.5,43.41l-82.5-43.41V45.422z M233.71,51.516l-46.454-25.272&#xA;&#x9;&#x9;&#x9;l-45.254,25.522l45.853,24.716L233.71,51.516z M246.403,70.991L199,95.196v49.906l47.205-26.202L246.403,70.991z M128.817,118.9&#xA;&#x9;&#x9;&#x9;L176,145.102V95.196l-47.233-24.205L128.817,118.9z"></path>
&#x9;&#x9;<path fill="#1CE6A9" d="M200,203.121l83-43.41l83,43.41v86.821l-83,43.411l-83-43.411V203.121z M331.042,209.215l-46.453-25.272&#xA;&#x9;&#x9;&#x9;l-45.255,25.521l45.852,24.716L331.042,209.215z M343.067,228.691L295,252.894v49.906l47.537-26.199L343.067,228.691z&#xA;&#x9;&#x9;&#x9; M224.482,276.6L270,302.799v-49.906l-46.4-24.203L224.482,276.6z"></path>
&#x9;&#x9;<path fill="#0F805E" d="M2,203.121l83-43.41l83,43.41v86.821l-83,43.411L2,289.942V203.121z M131.956,209.215l-46.454-25.272&#xA;&#x9;&#x9;&#x9;l-45.255,25.521L86.1,234.181L131.956,209.215z M145.027,228.691L98,252.894v49.906l47.016-26.199L145.027,228.691z M26.44,276.6&#xA;&#x9;&#x9;&#x9;L73,302.799v-49.906l-46.921-24.203L26.44,276.6z"></path>
&#x9;</g>
</g>
</svg>