<?xml version="1.0"?>

<svg version="1.1" id="Capa_1" xmlns="http://www.w3.org/2000/svg" xmlns:xlink="http://www.w3.org/1999/xlink" x="0px" y="0px" viewBox="0 0 1304 368" style="enable-background:new 0 0 1304 368;" xml:space="preserve">

<g>
&#x9;<g>
&#x9;&#x9;<path class="st0" d="M208.9,319.4c-3.7-0.2-11.3-1-14.8-2.1c-4.2-1.3-11.8-6.1-15.3-8.9c-4.4-3.5-12.4-11.9-16.1-15.8&#xA;&#x9;&#x9;&#x9;c-3.3-3.5-9.3-10.5-11.9-14.5c-2-3-4.1-9.7-4.7-13.3c-1.9-12.8,0-51.9,0-51.9s-14.6,11.7-17.1,17.3c-2.2,5-1.9,24-1.7,32&#xA;&#x9;&#x9;&#x9;c0.1,3.6,6,27.5,8.5,30.8c6.5,8.6,13.9,16.7,16.7,19.9c4.1,4.9,13.4,13.6,18.5,17.4c4.6,3.4,15.2,8.7,20.7,10.1&#xA;&#x9;&#x9;&#x9;c6.8,1.7,28,1.1,28,1.1V364c0,0-64.7,2.6-86.1,0c-10.7-1.3-32-6-41.9-10.3c-7.3-3.2-21.1-11.3-27.3-16.2&#xA;&#x9;&#x9;&#x9;c-7.6-6.1-22.3-19.2-28.2-27c-7.1-9.3-21.1-27.8-25.8-38.5C6.6,263.2,0,250.3,0,233.9V34.6c0,0,61.1-28.4,83-32.5&#xA;&#x9;&#x9;&#x9;c13.2-2.5,40.8-3.1,53.9,0c21.9,5.1,83,34.6,83,34.6v283.2C219.8,319.9,211.7,319.6,208.9,319.4z M21.8,50.3v98.6&#xA;&#x9;&#x9;&#x9;c0,0,14.9,14.6,20.6,18.5c8.9,6,28.2,15.3,38.6,17.4c14.1,2.8,43.4,4.2,57.4,0.9c9-2.1,26.2-9.7,33.7-15.2&#xA;&#x9;&#x9;&#x9;c7-5.2,24.9-24.7,24.9-24.7V50.3c0,0-20.1,1.6-26.4,3.7c-4.2,1.4-12.1,5.7-15.6,8.4c-6.1,4.8-18.1,15-22.3,21.5&#xA;&#x9;&#x9;&#x9;c-2.8,4.4-6.2,14.3-8.2,19.1c-2.6,6.2-8.6,25.2-8.6,25.2l-6.5,25l-12.4-42c0,0-3.5-15.2-5.7-19.9c-2.4-5.2-9.1-14.7-13-18.9&#xA;&#x9;&#x9;&#x9;c-3.7-4-11.4-12.1-16.1-14.7c-3.9-2.2-12.6-4.5-17-5.2C39.3,51.5,21.8,50.3,21.8,50.3z"></path>
&#x9;&#x9;<path class="st0" d="M76.2,111.5c0,8.4-6.7,15.2-15,15.2c-8.3,0-15-6.8-15-15.2c0-8.4,6.7-15.2,15-15.2&#xA;&#x9;&#x9;&#x9;C69.5,96.3,76.2,103.1,76.2,111.5z"></path>
&#x9;&#x9;<path class="st0" d="M174.5,111.5c0,8.4-6.7,15.2-15,15.2c-8.3,0-15-6.8-15-15.2c0-8.4,6.7-15.2,15-15.2&#xA;&#x9;&#x9;&#x9;C167.8,96.3,174.5,103.1,174.5,111.5z"></path>
&#x9;</g>
&#x9;<g>
&#x9;&#x9;<g>
&#x9;&#x9;&#x9;<path d="M586,63.3c-1.2,0-2.2-0.3-3.2-0.9c-1-0.6-2.1-1.3-3.3-2.3l-0.3-0.1c-1.7-1.7-3.9-3.5-6.5-5.6c-2.7-2-5.6-3.9-8.9-5.7&#xA;&#x9;&#x9;&#x9;&#x9;c-3.3-1.8-6.8-3.3-10.6-4.5c-3.8-1.2-7.6-1.9-11.5-1.9c-5,0-9.3,0.6-13.2,1.7c-3.8,1.1-7,2.6-9.6,4.5c-2.6,1.9-4.5,4.1-5.8,6.7&#xA;&#x9;&#x9;&#x9;&#x9;c-1.3,2.6-2,5.3-2,8.2c0,3.2,1,6,3,8.4c2,2.4,4.7,4.5,8.1,6.4c3.4,1.9,7.3,3.6,11.8,5.1c4.4,1.5,9.1,3.1,14,4.6&#xA;&#x9;&#x9;&#x9;&#x9;c5.6,1.7,11.1,3.5,16.6,5.4c5.5,1.9,10.7,4.1,15.7,6.6c5,2.4,9.7,5.1,14,8.1c4.3,3,8.1,6.4,11.2,10.2c3.1,3.8,5.6,8.1,7.4,12.9&#xA;&#x9;&#x9;&#x9;&#x9;c1.8,4.7,2.7,10.1,2.7,16c0,9.6-2,18.3-5.8,26.1c-3.9,7.8-9.3,14.4-16.1,20c-6.9,5.5-14.9,9.8-24.2,12.7&#xA;&#x9;&#x9;&#x9;&#x9;c-9.3,3-19.2,4.4-29.8,4.4c-6.8,0-13.6-0.8-20.3-2.4c-6.7-1.6-13.2-3.8-19.4-6.8c-6.2-2.9-12.1-6.4-17.6-10.5&#xA;&#x9;&#x9;&#x9;&#x9;c-5.5-4.1-10.5-8.7-14.8-13.9v0.1l-0.3-0.5c-1.9-2.2-2.9-4.2-2.9-6.1c0-1,0.3-1.9,0.8-2.8c0.5-0.9,1.3-1.9,2.4-2.9l4.4-4.4&#xA;&#x9;&#x9;&#x9;&#x9;c1.3-1.1,2.7-2.4,4.3-3.8c1.5-1.4,3-2.7,4.5-3.8c1.5-1.1,2.9-2.1,4.2-2.9c1.3-0.8,2.3-1.2,3.1-1.2c1.2,0,2.4,0.4,3.5,1.2&#xA;&#x9;&#x9;&#x9;&#x9;c1.1,0.8,1.9,1.5,2.7,2.3l0.5,0.5h-0.1c3.1,2.9,6.6,5.7,10.4,8.4c3.9,2.7,7.8,5,11.9,7.1c4.1,2.1,8.1,3.7,12.2,4.9&#xA;&#x9;&#x9;&#x9;&#x9;c4,1.2,7.8,1.8,11.4,1.8c4.9,0,9.4-0.6,13.7-1.9c4.3-1.2,7.9-3,11-5.2c3.1-2.3,5.5-5,7.3-8.2c1.8-3.2,2.7-6.7,2.7-10.6&#xA;&#x9;&#x9;&#x9;&#x9;c0-3.9-1.2-7.2-3.5-10c-2.3-2.8-5.3-5.2-9-7.3c-3.7-2.1-7.9-3.9-12.6-5.4c-4.7-1.5-9.3-2.9-14-4.2c-10.8-3.3-20.3-6.8-28.4-10.6&#xA;&#x9;&#x9;&#x9;&#x9;c-8.1-3.8-14.9-8.1-20.3-12.8c-5.4-4.7-9.5-10-12.2-15.9c-2.7-5.9-4.1-12.5-4.1-19.8c0-8.2,1.7-15.7,5-22.5&#xA;&#x9;&#x9;&#x9;&#x9;c3.3-6.8,8-12.5,14.2-17.4c6.1-4.8,13.5-8.6,22.1-11.3c8.6-2.7,18.2-4,28.8-4c8.1,0,16.3,1.3,24.6,3.8c8.3,2.5,16,6,23.1,10.4&#xA;&#x9;&#x9;&#x9;&#x9;c2.1,1.3,4.3,2.8,6.5,4.5c2.2,1.7,4.3,3.4,6.1,5.1c1.9,1.7,3.4,3.4,4.6,5c1.2,1.6,1.8,3,1.8,4.2c0,1.1-0.3,2.1-0.8,3.2&#xA;&#x9;&#x9;&#x9;&#x9;c-0.5,1.1-1.2,2.1-2,3l-4,4.2v-0.1c-1.3,1.4-2.7,2.9-4.1,4.4c-1.4,1.5-2.8,2.9-4.3,4c-1.4,1.2-2.7,2.2-3.9,3&#xA;&#x9;&#x9;&#x9;&#x9;C587.8,62.9,586.8,63.3,586,63.3z"></path>
&#x9;&#x9;&#x9;<path d="M772,125.3c0-1.8,0.5-3.2,1.5-4.2c1-1.1,2.4-1.6,4.4-1.6h21.7c1.5,0,2.9,0.5,4.3,1.6c1.3,1.1,2,2.5,2,4.2v60.9&#xA;&#x9;&#x9;&#x9;&#x9;c0,1.1-0.3,2.1-0.8,3c-0.5,1-1.5,1.9-2.9,2.8c-0.1,0-0.1,0-0.1,0.1s0,0.1-0.1,0.1c-4.2,2.9-8.6,5.5-13.4,7.8&#xA;&#x9;&#x9;&#x9;&#x9;c-4.8,2.3-9.8,4.2-15,5.8c-5.2,1.5-10.6,2.7-16.1,3.6c-5.5,0.8-11,1.3-16.5,1.3c-9.3,0-18.3-1.2-27-3.6&#xA;&#x9;&#x9;&#x9;&#x9;c-8.7-2.4-16.8-5.8-24.2-10.2c-7.5-4.4-14.3-9.7-20.5-15.8c-6.2-6.1-11.4-12.9-15.9-20.4c-4.4-7.5-7.8-15.5-10.2-24.1&#xA;&#x9;&#x9;&#x9;&#x9;c-2.4-8.6-3.6-17.6-3.6-27c0-9.3,1.2-18.2,3.6-26.8c2.4-8.6,5.8-16.7,10.2-24.2c4.4-7.5,9.7-14.4,15.9-20.5&#xA;&#x9;&#x9;&#x9;&#x9;c6.2-6.2,13-11.5,20.5-15.9c7.5-4.4,15.6-7.8,24.3-10.3c8.6-2.4,17.6-3.6,27-3.6c6.3,0,12.6,0.6,18.8,1.7&#xA;&#x9;&#x9;&#x9;&#x9;c6.2,1.1,12.3,2.8,18.1,5c2.2,0.9,4.9,2,7.9,3.3c3.1,1.3,6,2.8,8.7,4.4c2.7,1.6,5.1,3.2,7,4.9c1.9,1.7,2.9,3.3,2.9,4.9&#xA;&#x9;&#x9;&#x9;&#x9;c0,0.7-0.4,1.8-1.2,3.4c-0.8,1.5-1.8,3.3-3,5.2c-1.2,1.9-2.5,4-4.1,6c-1.5,2.1-3,4-4.4,5.6c-1.4,1.7-2.7,3.1-3.9,4.2&#xA;&#x9;&#x9;&#x9;&#x9;c-1.2,1.1-2,1.7-2.7,1.7c-0.5,0-1.2-0.1-1.9-0.3c-0.8-0.2-1.5-0.6-2.3-1.3c-5.6-3.9-11.9-7-18.9-9.3c-7-2.3-14.1-3.4-21.4-3.4&#xA;&#x9;&#x9;&#x9;&#x9;c-9.5,0-18.2,1.8-26,5.3c-7.9,3.5-14.7,8.3-20.3,14.3c-5.7,6-10.1,13-13.3,20.9c-3.2,7.9-4.8,16.2-4.8,25c0,9,1.7,17.5,5.1,25.4&#xA;&#x9;&#x9;&#x9;&#x9;c3.4,7.9,8,14.8,13.8,20.7c5.8,5.9,12.6,10.5,20.4,13.9c7.8,3.4,16.1,5.1,24.8,5.1c3.3,0,6.5-0.2,9.7-0.7c3.2-0.5,6.2-1.1,9-1.9&#xA;&#x9;&#x9;&#x9;&#x9;c2.8-0.8,5.3-1.6,7.5-2.5c2.2-0.9,4-1.8,5.4-2.7V125.3z"></path>
&#x9;&#x9;&#x9;<path d="M833.4,202.8c0.4-1.8,1-3.4,1.5-4.9c0.6-1.5,1.1-2.9,1.5-4.1l71.6-177.9c0.3-1,1-2.1,2.2-3.2c1.2-1.2,2.8-1.8,4.9-1.8&#xA;&#x9;&#x9;&#x9;&#x9;h21.4c2.1,0,3.7,0.5,4.6,1.6c0.9,1.1,1.6,2,2.1,2.8l4.4,10.3l70.2,175.1c0,0.3,0.1,0.7,0.2,1.4c0.1,0.7,0.2,1.2,0.2,1.7&#xA;&#x9;&#x9;&#x9;&#x9;c0,2.7-1.9,4-5.8,4h-26.2c-2,0-3.5-0.4-4.5-1.2c-1.1-0.8-2-2-2.7-3.7l-2.4-6.1c-1.7-4.2-3.4-8.5-5-12.7&#xA;&#x9;&#x9;&#x9;&#x9;c-1.7-4.2-3.3-8.5-4.9-12.9h-82c-2.3,6.2-4.5,12-6.7,17.4c-2.2,5.4-4,10.2-5.5,14.3c-1.2,3.3-3.5,4.9-6.9,4.9h-26.6&#xA;&#x9;&#x9;&#x9;&#x9;c-1.7,0-3-0.3-4.1-0.9c-1-0.6-1.5-1.5-1.5-2.8C833.3,203.4,833.3,203,833.4,202.8z M925.9,61.3c-4.8,12.2-9.5,24.8-14.3,37.9&#xA;&#x9;&#x9;&#x9;&#x9;c-4.7,13.1-9.5,25.7-14.3,37.8H954L925.9,61.3z"></path>
&#x9;&#x9;</g>
&#x9;</g>
&#x9;<g>
&#x9;&#x9;<g>
&#x9;&#x9;&#x9;<path d="M498.9,256.2c6.6,0,12.9,1.2,19,3.5v5.7c-6.2-2.8-12.5-4.2-19-4.2c-9,0-16.4,3.2-22.2,9.6c-5.8,6.2-8.7,14-8.7,23.2&#xA;&#x9;&#x9;&#x9;&#x9;c0,9.2,2.9,16.9,8.7,23.1c5.9,6.4,13.2,9.7,22.2,9.7c5.6,0,11-1,16.2-3v-28.3h-17.9v-5h24.1v36.5c-7.1,3.3-14.6,4.9-22.5,4.9&#xA;&#x9;&#x9;&#x9;&#x9;c-10.8,0-19.6-3.6-26.6-10.7c-7-7.2-10.5-16.2-10.5-27c0-10.7,3.5-19.7,10.5-26.9C479.4,259.8,488.3,256.2,498.9,256.2z"></path>
&#x9;&#x9;&#x9;<path d="M559.1,276.4c5.5,0,10.1,1.9,13.9,5.8c3.8,3.8,5.7,8.4,5.7,13.9c0,3.1-1.1,5.5-3.2,7.3s-4.9,2.8-8.1,2.8h-26.7&#xA;&#x9;&#x9;&#x9;&#x9;c0.3,5.9,2,10.7,5.1,14.5c3.3,4.1,7.8,6.1,13.4,6.1c5.5,0,10.9-1,16.4-3v5.5c-5.3,1.6-10.8,2.4-16.4,2.4c-8.1,0-14.3-2.6-18.6-8&#xA;&#x9;&#x9;&#x9;&#x9;c-4.1-5-6.1-11.5-6.1-19.7c0-8,1.9-14.4,5.8-19.4C544.6,279.2,550.9,276.4,559.1,276.4z M572.6,296.1c0-3.7-1.3-7-4-10.1&#xA;&#x9;&#x9;&#x9;&#x9;c-2.7-3.1-5.8-4.6-9.3-4.6c-5.5,0-10,1.9-13.3,5.8c-3,3.6-4.7,8.3-5.2,14h26.8c1.4,0,2.6-0.5,3.6-1.5&#xA;&#x9;&#x9;&#x9;&#x9;C572,298.7,572.6,297.5,572.6,296.1z"></path>
&#x9;&#x9;&#x9;<path d="M616.9,283.7c-3.7-1.6-7.6-2.4-11.7-2.4c-7.9,0-11.8,3-11.8,8.9c0,3.2,2.3,5.9,6.8,8.3l12.8,6.5&#xA;&#x9;&#x9;&#x9;&#x9;c4.6,3.1,6.8,7.1,6.8,11.8c0,5.1-2.1,9-6.2,11.7c-3.5,2.1-7.6,3.2-12.4,3.2c-5.6,0-10.3-0.7-14.2-2.1v-6&#xA;&#x9;&#x9;&#x9;&#x9;c4.5,2.2,9.1,3.4,13.8,3.4c3.3,0,6.2-0.8,8.6-2.4c2.7-1.8,4-4.2,4-7c0-3.6-2.3-6.6-6.8-9.1c-2.1-1.2-4.2-2.2-6.3-3.3&#xA;&#x9;&#x9;&#x9;&#x9;c-2.1-1-4.2-2.1-6.2-3.4c-2.4-1.4-4.2-3-5.3-4.8c-1.1-1.9-1.7-3.9-1.7-6.1c0-5,1.8-8.7,5.3-11.2c3.1-2.2,7.1-3.3,12-3.3&#xA;&#x9;&#x9;&#x9;&#x9;c4.3,0,8.4,0.7,12.5,2.1L616.9,283.7L616.9,283.7z"></path>
&#x9;&#x9;&#x9;<path d="M648,331.9c-1.8,0-3.4-0.3-4.9-0.9c-1.5-0.6-2.8-1.4-3.9-2.4c-1.1-1.1-2-2.3-2.7-3.7c-0.6-1.4-1-3-1-4.7v-37h-10.2v-5&#xA;&#x9;&#x9;&#x9;&#x9;h10.2v-15.8h6.2v15.8h12.6v5h-12.6v36.9c0,1.8,0.6,3.3,1.8,4.7c1.2,1.4,2.7,2.1,4.4,2.1c2.4,0,5-0.7,7.8-2.1v5.2&#xA;&#x9;&#x9;&#x9;&#x9;C653.4,331.3,650.8,331.9,648,331.9z"></path>
&#x9;&#x9;&#x9;<path d="M665.9,252.1h6.2v6.2h-6.2V252.1z M672.2,278.3V330h-6.2v-51.7H672.2z"></path>
&#x9;&#x9;&#x9;<path d="M734.5,304.6c0,8.2-2.1,14.7-6.2,19.5c-4.3,5.1-10.5,7.6-18.6,7.6c-8,0-14.3-2.8-18.8-8.3c-4.3-5.2-6.4-11.9-6.4-20.1&#xA;&#x9;&#x9;&#x9;&#x9;c0-8,2.1-14.5,6.3-19.5c4.5-5.1,10.8-7.6,18.8-7.6c7.9,0,14.1,2.8,18.6,8.4C732.4,289.9,734.5,296.5,734.5,304.6z M691.3,303.3&#xA;&#x9;&#x9;&#x9;&#x9;c0,6.7,1.4,12.1,4.3,16.3c3.3,4.7,8,7.1,14.1,7.1c6.2,0,10.8-2.2,13.9-6.5c2.7-3.7,4.1-8.9,4.1-15.7c0-6.6-1.4-12.1-4.2-16.3&#xA;&#x9;&#x9;&#x9;&#x9;c-3.2-4.7-7.8-7-13.9-7c-6.2,0-10.9,2.1-14,6.4C692.7,291.5,691.3,296.8,691.3,303.3z M714.8,252.1h6.2l-8.8,12.8h-5L714.8,252.1&#xA;&#x9;&#x9;&#x9;&#x9;z"></path>
&#x9;&#x9;&#x9;<path d="M745.2,330.1v-47.5c11.1-4,18.7-6,22.8-6c2.9,0,5.5,0.5,7.9,1.4c2.4,0.9,4.4,2.2,6.1,3.9c1.7,1.7,3,3.7,3.9,6.1&#xA;&#x9;&#x9;&#x9;&#x9;c0.9,2.4,1.4,5,1.4,7.8v34.2h-6.2v-34.2c0-2-0.3-3.9-1-5.7c-0.7-1.7-1.6-3.2-2.8-4.5c-1.2-1.3-2.6-2.3-4.3-3&#xA;&#x9;&#x9;&#x9;&#x9;c-1.7-0.7-3.5-1.1-5.6-1.1c-5,0-10.4,1.3-15.9,4v44.5L745.2,330.1L745.2,330.1z"></path>
&#x9;&#x9;&#x9;<path d="M825.8,329.9l29.1-71.9h8.2l28.3,71.9h-6.6l-7.5-18.8h-37.2l-7.6,18.8H825.8z M875.3,306.1L859,264.7l-16.9,41.5H875.3z"></path>
&#x9;&#x9;&#x9;<path d="M937.7,330c-4.8,1.2-9.5,1.8-14,1.8c-8,0-14.4-2.7-19-8c-4.4-5-6.6-11.6-6.6-19.7c0-8,2.2-14.6,6.6-19.8&#xA;&#x9;&#x9;&#x9;&#x9;c4.7-5.4,11-8.1,19-8.1c4.6,0,9.3,0.6,14,1.9v5.3c-4.5-1.5-9.2-2.2-14-2.2c-6,0-10.8,2.3-14.3,6.8c-3.4,4.3-5.1,9.7-5.1,16&#xA;&#x9;&#x9;&#x9;&#x9;c0,6.2,1.7,11.5,5.1,15.9c3.5,4.5,8.3,6.8,14.3,6.8c4.8,0,9.5-0.7,14-2.1V330z"></path>
&#x9;&#x9;&#x9;<path d="M985.6,325.6c-6.2,4.1-13.4,6.2-21.5,6.2c-5.7,0-10.4-1.4-14.1-4.2c-3.6-2.9-5.4-6.5-5.4-11c0-5,2.1-8.9,6.4-11.9&#xA;&#x9;&#x9;&#x9;&#x9;c4.8-3.4,11.9-5.1,21.1-5.1h7.2v-7.2c0-2.9-1.1-5.4-3.3-7.6c-2.2-2.2-4.9-3.3-8.2-3.3c-6.3,0-12,1-17.3,3.1V279&#xA;&#x9;&#x9;&#x9;&#x9;c5.3-1.7,11.4-2.5,18.4-2.5c4.6,0,8.5,1.5,11.7,4.6c3.2,3,4.8,6.8,4.8,11.3L985.6,325.6L985.6,325.6z M979.3,304.6h-6.5&#xA;&#x9;&#x9;&#x9;&#x9;c-7.4,0-13,1.3-16.9,3.9c-3.1,2.1-4.7,4.8-4.7,8.1c0,2.9,1.2,5.3,3.6,7.3c2.4,2,5.6,2.9,9.7,2.9c5.4,0,10.4-1.2,14.8-3.8&#xA;&#x9;&#x9;&#x9;&#x9;L979.3,304.6L979.3,304.6z"></path>
&#x9;&#x9;&#x9;<path d="M1023.3,276.5c5,0,10,0.9,14.9,2.7v-26.9h6.2v75.1c-6.7,2.9-13.1,4.3-19.3,4.3c-8.1,0-14.6-2.7-19.6-8.1&#xA;&#x9;&#x9;&#x9;&#x9;c-5-5.4-7.6-12.1-7.6-20.1c0-8,2.2-14.4,6.7-19.5C1009.1,279,1015.3,276.5,1023.3,276.5z M1023.9,281.5c-6.2,0-11,2.1-14.4,6.4&#xA;&#x9;&#x9;&#x9;&#x9;c-3.2,4-4.8,9.2-4.8,15.6c0,6.4,1.9,11.8,5.7,16.2c3.9,4.8,9,7.1,15.3,7.1c3.5,0,7.7-0.9,12.4-2.7V284&#xA;&#x9;&#x9;&#x9;&#x9;C1033.8,282.3,1029,281.5,1023.9,281.5z"></path>
&#x9;&#x9;&#x9;<path d="M1080.8,276.4c5.5,0,10.1,1.9,13.9,5.8c3.8,3.8,5.7,8.4,5.7,13.9c0,3.1-1.1,5.5-3.2,7.3c-2.2,1.8-4.9,2.8-8.1,2.8h-26.7&#xA;&#x9;&#x9;&#x9;&#x9;c0.3,5.9,2,10.7,5.1,14.5c3.3,4.1,7.8,6.1,13.4,6.1c5.5,0,10.9-1,16.4-3v5.5c-5.3,1.6-10.8,2.4-16.4,2.4c-8.1,0-14.3-2.6-18.6-8&#xA;&#x9;&#x9;&#x9;&#x9;c-4.1-5-6.1-11.5-6.1-19.7c0-8,1.9-14.4,5.8-19.4C1066.4,279.2,1072.6,276.4,1080.8,276.4z M1094.3,296.1c0-3.7-1.3-7-4-10.1&#xA;&#x9;&#x9;&#x9;&#x9;c-2.7-3.1-5.8-4.6-9.3-4.6c-5.5,0-10,1.9-13.3,5.8c-3,3.6-4.7,8.3-5.2,14h26.7c1.4,0,2.6-0.5,3.6-1.5&#xA;&#x9;&#x9;&#x9;&#x9;C1093.8,298.7,1094.3,297.5,1094.3,296.1z M1086,252h6.2l-8.8,12.8h-5L1086,252z"></path>
&#x9;&#x9;&#x9;<path d="M1143.9,330v-35.6c0-3.5-1.2-6.5-3.7-9.1c-2.5-2.6-5.4-3.9-8.8-3.9c-3.8,0-8.5,1.3-14.1,4V330h-6.2v-47.5l9.6-3.7&#xA;&#x9;&#x9;&#x9;&#x9;c2.2-0.9,4.3-1.5,6.2-1.8c1.9-0.3,3.6-0.5,5.1-0.5c5.4,0,9.8,1.8,13.2,5.5c1.5-0.5,3-1.1,4.4-1.7c1.4-0.6,2.9-1.2,4.3-1.7&#xA;&#x9;&#x9;&#x9;&#x9;c2-0.7,3.8-1.3,5.4-1.6c1.6-0.3,3.1-0.5,4.5-0.5c5.2,0,9.5,1.7,12.9,5.2c3.4,3.4,5.1,7.6,5.1,12.7V330h-6.2v-35.6&#xA;&#x9;&#x9;&#x9;&#x9;c0-3.5-1.2-6.5-3.7-9.1c-2.4-2.6-5.3-3.9-8.7-3.9c-3.4,0-8.4,1.6-14.9,4.8c1.2,2.7,1.8,5.4,1.8,8.2V330L1143.9,330L1143.9,330z"></path>
&#x9;&#x9;&#x9;<path d="M1197.9,252.1h6.2v6.2h-6.2V252.1z M1204.1,278.3V330h-6.2v-51.7H1204.1z"></path>
&#x9;&#x9;&#x9;<path d="M1256.1,330c-4.8,1.2-9.5,1.8-14,1.8c-8,0-14.4-2.7-19-8c-4.4-5-6.6-11.6-6.6-19.7c0-8,2.2-14.6,6.6-19.8&#xA;&#x9;&#x9;&#x9;&#x9;c4.7-5.4,11-8.1,19-8.1c4.6,0,9.3,0.6,14,1.9v5.3c-4.5-1.5-9.2-2.2-14-2.2c-6,0-10.8,2.3-14.3,6.8c-3.4,4.3-5.1,9.7-5.1,16&#xA;&#x9;&#x9;&#x9;&#x9;c0,6.2,1.7,11.5,5.1,15.9c3.5,4.5,8.3,6.8,14.3,6.8c4.8,0,9.5-0.7,14-2.1V330z"></path>
&#x9;&#x9;&#x9;<path d="M1304,325.6c-6.2,4.1-13.4,6.2-21.5,6.2c-5.7,0-10.4-1.4-14.1-4.2c-3.6-2.9-5.4-6.5-5.4-11c0-5,2.1-8.9,6.4-11.9&#xA;&#x9;&#x9;&#x9;&#x9;c4.8-3.4,11.9-5.1,21.1-5.1h7.2v-7.2c0-2.9-1.1-5.4-3.3-7.6c-2.2-2.2-4.9-3.3-8.2-3.3c-6.3,0-12,1-17.3,3.1V279&#xA;&#x9;&#x9;&#x9;&#x9;c5.3-1.7,11.4-2.5,18.4-2.5c4.6,0,8.5,1.5,11.7,4.6c3.2,3,4.8,6.8,4.8,11.3V325.6z M1297.8,304.6h-6.5c-7.4,0-13,1.3-16.9,3.9&#xA;&#x9;&#x9;&#x9;&#x9;c-3.1,2.1-4.7,4.8-4.7,8.1c0,2.9,1.2,5.3,3.6,7.3c2.4,2,5.6,2.9,9.7,2.9c5.4,0,10.4-1.2,14.8-3.8L1297.8,304.6L1297.8,304.6z"></path>
&#x9;&#x9;</g>
&#x9;</g>
</g>
</svg>