<?xml version="1.0"?>

<svg version="1.1" id="Capa_1" xmlns="http://www.w3.org/2000/svg" xmlns:xlink="http://www.w3.org/1999/xlink" x="0px" y="0px" viewBox="0 0 368 368" enable-background="new 0 0 368 368" xml:space="preserve">
&#x9;<g>
&#x9;&#x9;<g>
&#x9;&#x9;&#x9;<path fill="#8B1918" d="M356.535,174.485h-162.64l-0.02-165.39c0-2.562-4.295-6.595-9.582-6.595&#xA;&#x9;&#x9;&#x9;&#x9;c-5.304,0-10.174,3.512-10.096,6.534v165.451H11.779c-5.297,0-9.498,4.287-9.498,9.578c0,5.296,4.222,10.094,9.519,10.094&#xA;&#x9;&#x9;&#x9;&#x9;h162.397v162.907c0,5.289,4.553,8.436,9.845,8.436c5.303,0,9.833-3.128,9.833-8.416V194.157h162.734&#xA;&#x9;&#x9;&#x9;&#x9;c5.29,0,8.672-4.797,8.672-10.094C365.28,176.965,356.535,174.485,356.535,174.485z M215.612,174.485"></path>
&#x9;&#x9;&#x9;<path fill="#8B1918" d="M339.625,218.109H227.423c-5.307,0-9.582,4.29-9.582,9.581v112.177c0,5.285,4.276,9.578,9.582,9.578&#xA;&#x9;&#x9;&#x9;&#x9;c5.281,0,9.581-4.293,9.581-9.578V237.27h102.621c5.302,0,9.591-4.292,9.591-9.58&#xA;&#x9;&#x9;&#x9;&#x9;C349.216,222.399,344.927,218.109,339.625,218.109L339.625,218.109z M339.625,218.109"></path>
&#x9;&#x9;&#x9;<path fill="#8B1918" d="M140.722,218.109H28.511c-5.297,0-9.59,4.29-9.59,9.581c0,5.288,4.292,9.58,9.59,9.58h102.629v102.598&#xA;&#x9;&#x9;&#x9;&#x9;c0,5.285,4.292,9.578,9.583,9.578c5.288,0,9.582-4.293,9.582-9.578V227.69C150.304,222.399,146.011,218.109,140.722,218.109&#xA;&#x9;&#x9;&#x9;&#x9;L140.722,218.109z M140.722,218.109"></path>
&#x9;&#x9;&#x9;<path fill="#8B1918" d="M140.65,19.274c-5.292,0-9.584,4.289-9.584,9.58V131.45H28.433c-5.289,0-9.583,4.29-9.583,9.582&#xA;&#x9;&#x9;&#x9;&#x9;c0,5.292,4.294,9.581,9.583,9.581H140.65c5.287,0,9.581-4.289,9.581-9.581V28.854C150.231,23.563,145.938,19.274,140.65,19.274&#xA;&#x9;&#x9;&#x9;&#x9;L140.65,19.274z M140.65,19.274"></path>
&#x9;&#x9;&#x9;<path fill="#8B1918" d="M227.423,150.612h112.202c5.302,0,9.591-4.289,9.591-9.581c0-5.292-4.289-9.582-9.591-9.582H237.004&#xA;&#x9;&#x9;&#x9;&#x9;V28.854c0-5.291-4.3-9.58-9.581-9.58c-5.307,0-9.582,4.289-9.582,9.58v112.178C217.841,146.324,222.117,150.612,227.423,150.612&#xA;&#x9;&#x9;&#x9;&#x9;L227.423,150.612z M227.423,150.612"></path>
&#x9;&#x9;&#x9;<path fill="#8B1918" d="M97.638,264.473c-5.291,0-9.587,4.288-9.587,9.581v63.649c0,5.292,4.296,9.586,9.587,9.586&#xA;&#x9;&#x9;&#x9;&#x9;c5.297,0,9.581-4.294,9.581-9.586v-66.941C107.219,265.473,102.935,264.473,97.638,264.473L97.638,264.473z M97.638,264.473"></path>
&#x9;&#x9;&#x9;<path fill="#8B1918" d="M270.62,264.499c-5.302,0-9.58,1.583-9.58,6.875v66.357c0,5.292,4.277,9.583,9.58,9.583&#xA;&#x9;&#x9;&#x9;&#x9;c5.288,0,9.585-4.291,9.585-9.583v-63.652C280.205,268.789,275.908,264.499,270.62,264.499L270.62,264.499z M270.62,264.499"></path>
&#x9;&#x9;&#x9;<path fill="#8B1918" d="M97.52,107.481c5.292,0,9.583-4.289,9.583-9.582V34.247c0-5.293-4.291-9.583-9.583-9.583&#xA;&#x9;&#x9;&#x9;&#x9;c-5.296,0-9.583,4.29-9.583,9.583v63.652C87.937,103.192,92.223,107.481,97.52,107.481L97.52,107.481z M97.52,107.481"></path>
&#x9;&#x9;&#x9;<path fill="#8B1918" d="M270.62,105.467c5.288,0,9.585-4.289,9.585-9.582V32.231c0-5.292-4.297-9.581-9.585-9.581&#xA;&#x9;&#x9;&#x9;&#x9;c-5.302,0-9.58,4.289-9.58,9.581v63.653C261.04,101.178,265.318,105.467,270.62,105.467L270.62,105.467z M270.62,105.467"></path>
&#x9;&#x9;&#x9;<path fill="#8B1918" d="M30.969,107.481H97.52c5.292,0,6.712-4.289,6.712-9.582c0-5.29-4.291-9.58-9.588-9.58H30.969&#xA;&#x9;&#x9;&#x9;&#x9;c-5.292,0-9.586,4.29-9.586,9.58C21.383,103.192,25.677,107.481,30.969,107.481L30.969,107.481z M30.969,107.481"></path>
&#x9;&#x9;&#x9;<path fill="#8B1918" d="M33.967,280.345h63.671c5.297,0,9.581-4.287,9.581-9.582c0-5.29-4.284-9.579-9.581-9.579H33.967&#xA;&#x9;&#x9;&#x9;&#x9;c-5.299,0-9.585,4.29-9.585,9.579C24.383,276.058,28.669,280.345,33.967,280.345L33.967,280.345z M33.967,280.345"></path>
&#x9;&#x9;&#x9;<path fill="#8B1918" d="M334.292,261.209H270.62c-5.302,0-9.58,4.289-9.58,9.578c0,5.296,4.277,9.583,9.58,9.583h63.671&#xA;&#x9;&#x9;&#x9;&#x9;c5.282,0,9.58-4.288,9.58-9.583C343.872,265.498,339.574,261.209,334.292,261.209L334.292,261.209z M334.292,261.209"></path>
&#x9;&#x9;&#x9;<path fill="#8B1918" d="M334.292,88.319H270.62c-5.302,0-9.58,4.29-9.58,9.58c0,5.293,4.277,9.582,9.58,9.582h63.671&#xA;&#x9;&#x9;&#x9;&#x9;c5.282,0,9.58-4.289,9.58-9.582C343.872,92.609,339.574,88.319,334.292,88.319L334.292,88.319z M334.292,88.319"></path>
&#x9;&#x9;</g>
&#x9;</g>
&#x9;</svg>