<?xml version="1.0"?>

<svg version="1.1" id="Capa_1" xmlns="http://www.w3.org/2000/svg" xmlns:xlink="http://www.w3.org/1999/xlink" x="0px" y="0px" viewBox="0 0 368 368" enable-background="new 0 0 368 368" xml:space="preserve">
&#x9;<g>
&#x9;&#x9;<g>
&#x9;&#x9;&#x9;<path fill="#08402F" d="M21,108.563l164-85.815l164,85.815v171.634l-164,85.815L21,280.197V108.563z M11,279.843l72.091,40.423&#xA;&#x9;&#x9;&#x9;l37.109-16.262l65.624,34.232l70.384-36.813l27.193,18.345l27.69-14.473l35.965-24.454l-1.19-64.876L322,194.378v-71.842&#xA;&#x9;&#x9;&#x9;l-63.768-33.771l-4.386-21.517l-15.875-18.963l-51.902-25.538l-43.648,25.538l-17.675,19.463l-3.8,17.065L49,122.536v70.472&#xA;&#x9;&#x9;&#x9;L25.576,207.98L11,227.942V279.843z"></path>
&#x9;&#x9;&#x9;<path fill="#17BF8D" d="M104,45.422l82.5-43.41l82.5,43.41v86.821l-82.5,43.41l-82.5-43.41V45.422z M233.71,51.516l-46.454-25.272&#xA;&#x9;&#x9;&#x9;l-45.254,25.522l45.853,24.716L233.71,51.516z M246.403,70.991L199,95.196v49.906l47.205-26.202L246.403,70.991z M128.817,118.9&#xA;&#x9;&#x9;&#x9;L176,145.102V95.196l-47.233-24.205L128.817,118.9z"></path>
&#x9;&#x9;&#x9;<path fill="#1CE6A9" d="M200,203.121l83-43.41l83,43.41v86.821l-83,43.411l-83-43.411V203.121z M331.042,209.215l-46.453-25.272&#xA;&#x9;&#x9;&#x9;l-45.255,25.521l45.852,24.716L331.042,209.215z M343.067,228.691L295,252.894v49.906l47.537-26.199L343.067,228.691z&#xA;&#x9;&#x9;&#x9; M224.482,276.6L270,302.799v-49.906l-46.4-24.203L224.482,276.6z"></path>
&#x9;&#x9;&#x9;<path fill="#0F805E" d="M2,203.121l83-43.41l83,43.41v86.821l-83,43.411L2,289.942V203.121z M131.956,209.215l-46.454-25.272&#xA;&#x9;&#x9;&#x9;l-45.255,25.521L86.1,234.181L131.956,209.215z M145.027,228.691L98,252.894v49.906l47.016-26.199L145.027,228.691z M26.44,276.6&#xA;&#x9;&#x9;&#x9;L73,302.799v-49.906l-46.921-24.203L26.44,276.6z"></path>
&#x9;&#x9;</g>
&#x9;</g>
</svg>