<?xml version="1.0"?>

<svg version="1.1" id="Capa_1" xmlns="http://www.w3.org/2000/svg" xmlns:xlink="http://www.w3.org/1999/xlink" x="0px" y="0px" viewBox="0 0 368 368" style="enable-background:new 0 0 368 368;" xml:space="preserve">

<g>
&#x9;<g>
&#x9;&#x9;<path class="st0" d="M208.9,319.4c-3.7-0.2-11.3-1-14.8-2.1c-4.2-1.3-11.8-6.1-15.3-8.9c-4.4-3.5-12.4-11.9-16.1-15.8&#xA;&#x9;&#x9;&#x9;c-3.3-3.5-9.3-10.5-11.9-14.5c-2-3-4.1-9.7-4.7-13.3c-1.9-12.8,0-51.9,0-51.9s-14.6,11.7-17.1,17.3c-2.2,5-1.9,24-1.7,32&#xA;&#x9;&#x9;&#x9;c0.1,3.6,6,27.5,8.5,30.8c6.5,8.6,13.9,16.7,16.7,19.9c4.1,4.9,13.4,13.6,18.5,17.4c4.6,3.4,15.2,8.7,20.7,10.1&#xA;&#x9;&#x9;&#x9;c6.8,1.7,28,1.1,28,1.1V364c0,0-64.7,2.6-86.1,0c-10.7-1.3-32-6-41.9-10.3c-7.3-3.2-21.1-11.3-27.3-16.2&#xA;&#x9;&#x9;&#x9;c-7.6-6.1-22.3-19.2-28.2-27c-7.1-9.3-21.1-27.8-25.8-38.5C6.6,263.2,0,250.3,0,233.9V34.6c0,0,61.1-28.4,83-32.5&#xA;&#x9;&#x9;&#x9;c13.2-2.5,40.8-3.1,53.9,0c21.9,5.1,83,34.6,83,34.6v283.2C219.8,319.9,211.7,319.6,208.9,319.4z M21.8,50.3v98.6&#xA;&#x9;&#x9;&#x9;c0,0,14.9,14.6,20.6,18.5c8.9,6,28.2,15.3,38.6,17.4c14.1,2.8,43.4,4.2,57.4,0.9c9-2.1,26.2-9.7,33.7-15.2&#xA;&#x9;&#x9;&#x9;c7-5.2,24.9-24.7,24.9-24.7V50.3c0,0-20.1,1.6-26.4,3.7c-4.2,1.4-12.1,5.7-15.6,8.4c-6.1,4.8-18.1,15-22.3,21.5&#xA;&#x9;&#x9;&#x9;c-2.8,4.4-6.2,14.3-8.2,19.1c-2.6,6.2-8.6,25.2-8.6,25.2l-6.5,25l-12.4-42c0,0-3.5-15.2-5.7-19.9c-2.4-5.2-9.1-14.7-13-18.9&#xA;&#x9;&#x9;&#x9;c-3.7-4-11.4-12.1-16.1-14.7c-3.9-2.2-12.6-4.5-17-5.2C39.3,51.5,21.8,50.3,21.8,50.3z"></path>
&#x9;&#x9;<path class="st0" d="M76.2,111.5c0,8.4-6.7,15.2-15,15.2c-8.3,0-15-6.8-15-15.2c0-8.4,6.7-15.2,15-15.2&#xA;&#x9;&#x9;&#x9;C69.5,96.3,76.2,103.1,76.2,111.5z"></path>
&#x9;&#x9;<path class="st0" d="M174.5,111.5c0,8.4-6.7,15.2-15,15.2c-8.3,0-15-6.8-15-15.2c0-8.4,6.7-15.2,15-15.2&#xA;&#x9;&#x9;&#x9;C167.8,96.3,174.5,103.1,174.5,111.5z"></path>
&#x9;</g>

</g>
</svg>